<svg xmlns="http://www.w3.org/2000/svg" viewBox="0 0 49 49" width="1470" height="1470" shape-rendering="crispEdges">
  <title>QR para la mediateca de la sesion del 21 de abril de 2026</title>
  <rect width="49" height="49" fill="#fff"/>
  <path fill="#000" d="M4,4h7v1h-7zM13,4h1v1h-1zM15,4h1v1h-1zM19,4h1v1h-1zM22,4h2v1h-2zM25,4h9v1h-9zM36,4h1v1h-1zM38,4h7v1h-7zM4,5h1v1h-1zM10,5h1v1h-1zM13,5h1v1h-1zM15,5h2v1h-2zM18,5h3v1h-3zM24,5h3v1h-3zM29,5h2v1h-2zM33,5h1v1h-1zM35,5h2v1h-2zM38,5h1v1h-1zM44,5h1v1h-1zM4,6h1v1h-1zM6,6h3v1h-3zM10,6h1v1h-1zM12,6h3v1h-3zM16,6h5v1h-5zM23,6h3v1h-3zM27,6h2v1h-2zM30,6h2v1h-2zM35,6h1v1h-1zM38,6h1v1h-1zM40,6h3v1h-3zM44,6h1v1h-1zM4,7h1v1h-1zM6,7h3v1h-3zM10,7h1v1h-1zM14,7h2v1h-2zM18,7h2v1h-2zM23,7h2v1h-2zM26,7h1v1h-1zM31,7h4v1h-4zM38,7h1v1h-1zM40,7h3v1h-3zM44,7h1v1h-1zM4,8h1v1h-1zM6,8h3v1h-3zM10,8h1v1h-1zM12,8h1v1h-1zM17,8h1v1h-1zM19,8h2v1h-2zM25,8h4v1h-4zM31,8h2v1h-2zM34,8h1v1h-1zM38,8h1v1h-1zM40,8h3v1h-3zM44,8h1v1h-1zM4,9h1v1h-1zM10,9h1v1h-1zM12,9h2v1h-2zM15,9h2v1h-2zM23,9h2v1h-2zM26,9h1v1h-1zM32,9h4v1h-4zM38,9h1v1h-1zM44,9h1v1h-1zM4,10h7v1h-7zM12,10h1v1h-1zM14,10h1v1h-1zM16,10h1v1h-1zM18,10h1v1h-1zM20,10h1v1h-1zM22,10h1v1h-1zM24,10h1v1h-1zM26,10h1v1h-1zM28,10h1v1h-1zM30,10h1v1h-1zM32,10h1v1h-1zM34,10h1v1h-1zM36,10h1v1h-1zM38,10h7v1h-7zM13,11h1v1h-1zM15,11h4v1h-4zM20,11h1v1h-1zM22,11h2v1h-2zM25,11h2v1h-2zM28,11h1v1h-1zM32,11h5v1h-5zM5,12h1v1h-1zM8,12h1v1h-1zM10,12h1v1h-1zM12,12h1v1h-1zM19,12h1v1h-1zM22,12h7v1h-7zM33,12h1v1h-1zM37,12h1v1h-1zM39,12h2v1h-2zM42,12h1v1h-1zM5,13h2v1h-2zM11,13h1v1h-1zM13,13h1v1h-1zM17,13h3v1h-3zM21,13h11v1h-11zM34,13h1v1h-1zM38,13h4v1h-4zM44,13h1v1h-1zM6,14h5v1h-5zM12,14h1v1h-1zM14,14h2v1h-2zM17,14h1v1h-1zM24,14h3v1h-3zM30,14h3v1h-3zM36,14h1v1h-1zM43,14h2v1h-2zM4,15h4v1h-4zM9,15h1v1h-1zM11,15h1v1h-1zM15,15h1v1h-1zM17,15h1v1h-1zM19,15h5v1h-5zM26,15h2v1h-2zM30,15h1v1h-1zM32,15h2v1h-2zM35,15h2v1h-2zM38,15h2v1h-2zM41,15h1v1h-1zM44,15h1v1h-1zM4,16h3v1h-3zM9,16h2v1h-2zM14,16h1v1h-1zM16,16h1v1h-1zM19,16h5v1h-5zM25,16h2v1h-2zM33,16h1v1h-1zM37,16h1v1h-1zM9,17h1v1h-1zM11,17h2v1h-2zM14,17h4v1h-4zM26,17h1v1h-1zM28,17h1v1h-1zM32,17h1v1h-1zM34,17h3v1h-3zM38,17h1v1h-1zM40,17h5v1h-5zM4,18h2v1h-2zM7,18h2v1h-2zM10,18h1v1h-1zM12,18h3v1h-3zM17,18h2v1h-2zM20,18h1v1h-1zM26,18h3v1h-3zM32,18h1v1h-1zM34,18h1v1h-1zM36,18h3v1h-3zM40,18h1v1h-1zM42,18h1v1h-1zM44,18h1v1h-1zM5,19h2v1h-2zM14,19h1v1h-1zM17,19h1v1h-1zM19,19h4v1h-4zM25,19h1v1h-1zM27,19h1v1h-1zM30,19h1v1h-1zM33,19h1v1h-1zM40,19h1v1h-1zM44,19h1v1h-1zM10,20h2v1h-2zM13,20h1v1h-1zM15,20h2v1h-2zM19,20h1v1h-1zM22,20h3v1h-3zM28,20h1v1h-1zM31,20h1v1h-1zM33,20h3v1h-3zM39,20h1v1h-1zM41,20h1v1h-1zM43,20h1v1h-1zM4,21h2v1h-2zM7,21h2v1h-2zM11,21h1v1h-1zM15,21h2v1h-2zM20,21h1v1h-1zM22,21h4v1h-4zM27,21h1v1h-1zM30,21h3v1h-3zM34,21h1v1h-1zM36,21h7v1h-7zM44,21h1v1h-1zM4,22h2v1h-2zM9,22h2v1h-2zM13,22h3v1h-3zM17,22h1v1h-1zM22,22h2v1h-2zM25,22h1v1h-1zM27,22h5v1h-5zM33,22h1v1h-1zM39,22h1v1h-1zM41,22h2v1h-2zM44,22h1v1h-1zM6,23h1v1h-1zM8,23h2v1h-2zM13,23h2v1h-2zM16,23h4v1h-4zM22,23h2v1h-2zM26,23h4v1h-4zM31,23h1v1h-1zM33,23h3v1h-3zM39,23h1v1h-1zM44,23h1v1h-1zM5,24h1v1h-1zM7,24h2v1h-2zM10,24h1v1h-1zM13,24h1v1h-1zM16,24h2v1h-2zM19,24h1v1h-1zM22,24h4v1h-4zM28,24h2v1h-2zM32,24h1v1h-1zM34,24h4v1h-4zM41,24h1v1h-1zM43,24h1v1h-1zM5,25h3v1h-3zM11,25h1v1h-1zM15,25h1v1h-1zM18,25h1v1h-1zM21,25h2v1h-2zM25,25h1v1h-1zM27,25h1v1h-1zM29,25h5v1h-5zM38,25h3v1h-3zM44,25h1v1h-1zM4,26h2v1h-2zM8,26h1v1h-1zM10,26h3v1h-3zM14,26h4v1h-4zM21,26h5v1h-5zM27,26h5v1h-5zM34,26h1v1h-1zM37,26h3v1h-3zM42,26h1v1h-1zM44,26h1v1h-1zM5,27h1v1h-1zM11,27h2v1h-2zM15,27h1v1h-1zM17,27h4v1h-4zM23,27h3v1h-3zM28,27h1v1h-1zM30,27h1v1h-1zM33,27h2v1h-2zM36,27h1v1h-1zM38,27h1v1h-1zM41,27h1v1h-1zM43,27h1v1h-1zM5,28h1v1h-1zM8,28h3v1h-3zM12,28h1v1h-1zM14,28h3v1h-3zM18,28h2v1h-2zM22,28h4v1h-4zM27,28h2v1h-2zM31,28h1v1h-1zM33,28h1v1h-1zM36,28h2v1h-2zM39,28h1v1h-1zM41,28h1v1h-1zM43,28h2v1h-2zM4,29h2v1h-2zM15,29h1v1h-1zM18,29h2v1h-2zM22,29h2v1h-2zM25,29h1v1h-1zM27,29h1v1h-1zM29,29h4v1h-4zM34,29h1v1h-1zM36,29h1v1h-1zM38,29h1v1h-1zM40,29h1v1h-1zM42,29h1v1h-1zM44,29h1v1h-1zM5,30h4v1h-4zM10,30h3v1h-3zM14,30h1v1h-1zM16,30h1v1h-1zM18,30h3v1h-3zM25,30h1v1h-1zM27,30h1v1h-1zM29,30h1v1h-1zM31,30h1v1h-1zM33,30h1v1h-1zM36,30h1v1h-1zM39,30h2v1h-2zM44,30h1v1h-1zM5,31h2v1h-2zM9,31h1v1h-1zM11,31h3v1h-3zM15,31h2v1h-2zM18,31h1v1h-1zM25,31h1v1h-1zM27,31h2v1h-2zM30,31h10v1h-10zM41,31h1v1h-1zM4,32h1v1h-1zM10,32h2v1h-2zM16,32h2v1h-2zM19,32h2v1h-2zM23,32h2v1h-2zM26,32h1v1h-1zM28,32h1v1h-1zM31,32h3v1h-3zM36,32h1v1h-1zM4,33h2v1h-2zM7,33h1v1h-1zM9,33h1v1h-1zM11,33h6v1h-6zM19,33h4v1h-4zM25,33h1v1h-1zM29,33h2v1h-2zM33,33h3v1h-3zM39,33h2v1h-2zM44,33h1v1h-1zM7,34h1v1h-1zM9,34h2v1h-2zM13,34h2v1h-2zM16,34h2v1h-2zM19,34h2v1h-2zM22,34h2v1h-2zM26,34h1v1h-1zM31,34h1v1h-1zM34,34h2v1h-2zM37,34h1v1h-1zM42,34h1v1h-1zM44,34h1v1h-1zM6,35h1v1h-1zM8,35h2v1h-2zM11,35h1v1h-1zM14,35h1v1h-1zM20,35h1v1h-1zM24,35h3v1h-3zM28,35h1v1h-1zM30,35h8v1h-8zM39,35h3v1h-3zM43,35h1v1h-1zM4,36h3v1h-3zM8,36h6v1h-6zM16,36h5v1h-5zM23,36h1v1h-1zM25,36h1v1h-1zM27,36h2v1h-2zM33,36h1v1h-1zM36,36h6v1h-6zM43,36h2v1h-2zM12,37h9v1h-9zM24,37h1v1h-1zM27,37h1v1h-1zM29,37h1v1h-1zM31,37h4v1h-4zM36,37h1v1h-1zM40,37h1v1h-1zM43,37h2v1h-2zM4,38h7v1h-7zM13,38h1v1h-1zM15,38h5v1h-5zM21,38h1v1h-1zM23,38h1v1h-1zM25,38h1v1h-1zM27,38h1v1h-1zM31,38h1v1h-1zM34,38h3v1h-3zM38,38h1v1h-1zM40,38h3v1h-3zM44,38h1v1h-1zM4,39h1v1h-1zM10,39h1v1h-1zM13,39h2v1h-2zM16,39h2v1h-2zM20,39h1v1h-1zM22,39h1v1h-1zM27,39h2v1h-2zM30,39h2v1h-2zM35,39h2v1h-2zM40,39h1v1h-1zM43,39h2v1h-2zM4,40h1v1h-1zM6,40h3v1h-3zM10,40h1v1h-1zM12,40h2v1h-2zM15,40h1v1h-1zM21,40h1v1h-1zM23,40h3v1h-3zM28,40h4v1h-4zM35,40h6v1h-6zM44,40h1v1h-1zM4,41h1v1h-1zM6,41h3v1h-3zM10,41h1v1h-1zM15,41h2v1h-2zM20,41h1v1h-1zM22,41h2v1h-2zM25,41h3v1h-3zM31,41h1v1h-1zM34,41h2v1h-2zM39,41h1v1h-1zM41,41h1v1h-1zM43,41h2v1h-2zM4,42h1v1h-1zM6,42h3v1h-3zM10,42h1v1h-1zM18,42h1v1h-1zM21,42h3v1h-3zM27,42h2v1h-2zM31,42h2v1h-2zM37,42h1v1h-1zM43,42h2v1h-2zM4,43h1v1h-1zM10,43h1v1h-1zM12,43h1v1h-1zM15,43h3v1h-3zM24,43h4v1h-4zM30,43h2v1h-2zM33,43h2v1h-2zM36,43h1v1h-1zM38,43h2v1h-2zM41,43h1v1h-1zM43,43h2v1h-2zM4,44h7v1h-7zM15,44h1v1h-1zM20,44h3v1h-3zM24,44h1v1h-1zM26,44h2v1h-2zM31,44h3v1h-3zM36,44h5v1h-5zM43,44h1v1h-1z"/>
</svg>
