<?xml version="1.0" encoding="UTF-8" standalone="no"?>
<!DOCTYPE svg PUBLIC "-//W3C//DTD SVG 1.1//EN"
 "http://www.w3.org/Graphics/SVG/1.1/DTD/svg11.dtd">
<!-- Generated by graphviz version 14.0.5 (20251129.0259)
 -->
<!-- Title: sesion01 Pages: 1 -->
<svg width="1442pt" height="780pt"
 viewBox="0.00 0.00 1442.00 780.00" xmlns="http://www.w3.org/2000/svg" xmlns:xlink="http://www.w3.org/1999/xlink">
<g id="graph0" class="graph" transform="scale(1 1) rotate(0) translate(4 775.66)">
<title>sesion01</title>
<polygon fill="#fafafa" stroke="none" points="-4,4 -4,-775.66 1438.22,-775.66 1438.22,4 -4,4"/>
<text xml:space="preserve" text-anchor="middle" x="717.11" y="-754.36" font-family="sans-serif" font-size="14.00">Sesión 1 — Conceptos emergentes</text>
<text xml:space="preserve" text-anchor="middle" x="717.11" y="-739.36" font-family="sans-serif" font-size="14.00">Globalización y Empleo 2026&#45;2 · FCA UNAM</text>
<g id="clust1" class="cluster">
<title>cluster_tech</title>
<polygon fill="#e8f0fe" stroke="#7baaf7" points="734.23,-81 734.23,-506.2 929.23,-506.2 929.23,-81 734.23,-81"/>
<text xml:space="preserve" text-anchor="middle" x="831.73" y="-488.9" font-family="sans-serif" font-size="14.00">Tecnología y economía digital</text>
</g>
<g id="clust2" class="cluster">
<title>cluster_sistema</title>
<polygon fill="#fef9e7" stroke="#f9ab00" points="10.23,-319.4 10.23,-657.49 313.23,-657.49 313.23,-319.4 10.23,-319.4"/>
<text xml:space="preserve" text-anchor="middle" x="161.73" y="-640.19" font-family="sans-serif" font-size="14.00">Sistema internacional</text>
</g>
<g id="clust3" class="cluster">
<title>cluster_marcos</title>
<polygon fill="#fce8e6" stroke="#f28b82" points="937.23,-408.2 937.23,-657.49 1381.23,-657.49 1381.23,-408.2 937.23,-408.2"/>
<text xml:space="preserve" text-anchor="middle" x="1159.23" y="-640.19" font-family="sans-serif" font-size="14.00">Marcos conceptuales</text>
</g>
<g id="clust4" class="cluster">
<title>cluster_trabajo</title>
<polygon fill="#e6f4ea" stroke="#81c995" points="321.23,-8 321.23,-506.2 635.23,-506.2 635.23,-8 321.23,-8"/>
<text xml:space="preserve" text-anchor="middle" x="478.23" y="-488.9" font-family="sans-serif" font-size="14.00">Mundo laboral</text>
</g>
<g id="clust5" class="cluster">
<title>cluster_impactos</title>
<polygon fill="#f3e8fd" stroke="#c58af9" points="950.23,-8 950.23,-179 1352.23,-179 1352.23,-8 950.23,-8"/>
<text xml:space="preserve" text-anchor="middle" x="1151.23" y="-161.7" font-family="sans-serif" font-size="14.00">Impactos</text>
</g>
<!-- curso -->
<g id="node1" class="node">
<title>curso</title>
<ellipse fill="#1a73e8" stroke="black" stroke-width="0" cx="678.23" cy="-579.94" rx="88.35" ry="36.49"/>
<text xml:space="preserve" text-anchor="middle" x="678.23" y="-581.64" font-family="sans-serif" font-size="14.00" fill="white">Globalización</text>
<text xml:space="preserve" text-anchor="middle" x="678.23" y="-566.64" font-family="sans-serif" font-size="14.00" fill="white">y Empleo</text>
</g>
<!-- automatizacion -->
<g id="node2" class="node">
<title>automatizacion</title>
<path fill="#d2e3fc" stroke="black" d="M863.08,-452.2C863.08,-452.2 761.38,-452.2 761.38,-452.2 755.38,-452.2 749.38,-446.2 749.38,-440.2 749.38,-440.2 749.38,-428.2 749.38,-428.2 749.38,-422.2 755.38,-416.2 761.38,-416.2 761.38,-416.2 863.08,-416.2 863.08,-416.2 869.08,-416.2 875.08,-422.2 875.08,-428.2 875.08,-428.2 875.08,-440.2 875.08,-440.2 875.08,-446.2 869.08,-452.2 863.08,-452.2"/>
<text xml:space="preserve" text-anchor="middle" x="812.23" y="-429.18" font-family="sans-serif" font-size="12.00">Automatización</text>
</g>
<!-- curso&#45;&gt;automatizacion -->
<g id="edge20" class="edge">
<title>curso&#45;&gt;automatizacion</title>
<path fill="none" stroke="#888888" d="M708.97,-545.96C736.17,-516.79 774.78,-475.37 796.25,-452.34"/>
<text xml:space="preserve" text-anchor="middle" x="754.46" y="-515.95" font-family="sans-serif" font-size="10.00">impacto</text>
</g>
<!-- sistema -->
<g id="node7" class="node">
<title>sistema</title>
<path fill="#feefc3" stroke="black" d="M293.58,-452.2C293.58,-452.2 158.88,-452.2 158.88,-452.2 152.88,-452.2 146.88,-446.2 146.88,-440.2 146.88,-440.2 146.88,-428.2 146.88,-428.2 146.88,-422.2 152.88,-416.2 158.88,-416.2 158.88,-416.2 293.58,-416.2 293.58,-416.2 299.58,-416.2 305.58,-422.2 305.58,-428.2 305.58,-428.2 305.58,-440.2 305.58,-440.2 305.58,-446.2 299.58,-452.2 293.58,-452.2"/>
<text xml:space="preserve" text-anchor="middle" x="226.23" y="-429.18" font-family="sans-serif" font-size="12.00">Sistema internacional</text>
</g>
<!-- curso&#45;&gt;sistema -->
<g id="edge22" class="edge">
<title>curso&#45;&gt;sistema</title>
<path fill="none" stroke="#888888" d="M592.08,-572.34C501.11,-564.29 364.51,-548.79 317.73,-525.45 283.39,-508.31 253.89,-473.46 238.23,-452.44"/>
<text xml:space="preserve" text-anchor="middle" x="336.48" y="-515.95" font-family="sans-serif" font-size="10.00">contexto</text>
</g>
<!-- sociociber -->
<g id="node13" class="node">
<title>sociociber</title>
<path fill="#fad2cf" stroke="black" d="M1212.46,-452.2C1212.46,-452.2 1104.01,-452.2 1104.01,-452.2 1098.01,-452.2 1092.01,-446.2 1092.01,-440.2 1092.01,-440.2 1092.01,-428.2 1092.01,-428.2 1092.01,-422.2 1098.01,-416.2 1104.01,-416.2 1104.01,-416.2 1212.46,-416.2 1212.46,-416.2 1218.46,-416.2 1224.46,-422.2 1224.46,-428.2 1224.46,-428.2 1224.46,-440.2 1224.46,-440.2 1224.46,-446.2 1218.46,-452.2 1212.46,-452.2"/>
<text xml:space="preserve" text-anchor="middle" x="1158.23" y="-429.18" font-family="sans-serif" font-size="12.00">Sociocibernética</text>
</g>
<!-- curso&#45;&gt;sociociber -->
<g id="edge23" class="edge">
<title>curso&#45;&gt;sociociber</title>
<path fill="none" stroke="#888888" d="M741.22,-554.54C778.82,-540.85 827.79,-524.49 872.48,-514.2 899.02,-508.09 906.64,-512.1 933.23,-506.2 996.01,-492.27 1066.41,-468.72 1111.48,-452.59"/>
<text xml:space="preserve" text-anchor="middle" x="905.86" y="-515.95" font-family="sans-serif" font-size="10.00">enfoque teórico</text>
</g>
<!-- situacion -->
<g id="node17" class="node">
<title>situacion</title>
<path fill="#ceead6" stroke="black" d="M483.71,-368.95C483.71,-368.95 394.76,-368.95 394.76,-368.95 388.76,-368.95 382.76,-362.95 382.76,-356.95 382.76,-356.95 382.76,-333.85 382.76,-333.85 382.76,-327.85 388.76,-321.85 394.76,-321.85 394.76,-321.85 483.71,-321.85 483.71,-321.85 489.71,-321.85 495.71,-327.85 495.71,-333.85 495.71,-333.85 495.71,-356.95 495.71,-356.95 495.71,-362.95 489.71,-368.95 483.71,-368.95"/>
<text xml:space="preserve" text-anchor="middle" x="439.23" y="-346.75" font-family="sans-serif" font-size="12.00">Situación del</text>
<text xml:space="preserve" text-anchor="middle" x="439.23" y="-334" font-family="sans-serif" font-size="12.00">empleo</text>
</g>
<!-- curso&#45;&gt;situacion -->
<g id="edge21" class="edge">
<title>curso&#45;&gt;situacion</title>
<path fill="none" stroke="#888888" d="M590.94,-574.84C540.92,-567.55 481.58,-549.51 447.98,-506.2 417.16,-466.46 425.54,-403.03 433.11,-369.28"/>
<text xml:space="preserve" text-anchor="middle" x="480.61" y="-430.33" font-family="sans-serif" font-size="10.00">consecuencias</text>
</g>
<!-- finanzas -->
<g id="node29" class="node">
<title>finanzas</title>
<path fill="#e9d2fd" stroke="black" d="M1173.58,-125C1173.58,-125 1104.88,-125 1104.88,-125 1098.88,-125 1092.88,-119 1092.88,-113 1092.88,-113 1092.88,-101 1092.88,-101 1092.88,-95 1098.88,-89 1104.88,-89 1104.88,-89 1173.58,-89 1173.58,-89 1179.58,-89 1185.58,-95 1185.58,-101 1185.58,-101 1185.58,-113 1185.58,-113 1185.58,-119 1179.58,-125 1173.58,-125"/>
<text xml:space="preserve" text-anchor="middle" x="1139.23" y="-101.97" font-family="sans-serif" font-size="12.00">Finanzas</text>
</g>
<!-- curso&#45;&gt;finanzas -->
<g id="edge24" class="edge">
<title>curso&#45;&gt;finanzas</title>
<path fill="none" stroke="#888888" d="M678.23,-543.49C678.23,-514.4 678.23,-472.13 678.23,-435.2 678.23,-435.2 678.23,-435.2 678.23,-238.8 678.23,-213.61 706.09,-223.44 730.23,-216.25 804.13,-194.25 824.56,-195.2 901.23,-187 921.47,-184.84 1066.16,-188.36 1084.23,-179 1106.52,-167.46 1122.53,-142.35 1131.34,-125.31"/>
<text xml:space="preserve" text-anchor="middle" x="700.36" y="-347.15" font-family="sans-serif" font-size="10.00">dimensión</text>
<text xml:space="preserve" text-anchor="middle" x="700.36" y="-335.9" font-family="sans-serif" font-size="10.00">financiera</text>
</g>
<!-- ia -->
<g id="node3" class="node">
<title>ia</title>
<path fill="#d2e3fc" stroke="black" d="M809.96,-363.4C809.96,-363.4 770.51,-363.4 770.51,-363.4 764.51,-363.4 758.51,-357.4 758.51,-351.4 758.51,-351.4 758.51,-339.4 758.51,-339.4 758.51,-333.4 764.51,-327.4 770.51,-327.4 770.51,-327.4 809.96,-327.4 809.96,-327.4 815.96,-327.4 821.96,-333.4 821.96,-339.4 821.96,-339.4 821.96,-351.4 821.96,-351.4 821.96,-357.4 815.96,-363.4 809.96,-363.4"/>
<text xml:space="preserve" text-anchor="middle" x="790.23" y="-340.38" font-family="sans-serif" font-size="12.00">&quot;IA&quot;</text>
</g>
<!-- automatizacion&#45;&gt;ia -->
<g id="edge1" class="edge">
<title>automatizacion&#45;&gt;ia</title>
<path fill="none" stroke="#888888" d="M816.1,-415.78C817.37,-406.98 817.86,-396.24 815.23,-386.95 812.88,-378.67 808.32,-370.43 803.72,-363.56"/>
</g>
<!-- digital -->
<g id="node4" class="node">
<title>digital</title>
<path fill="#d2e3fc" stroke="black" d="M906.08,-363.4C906.08,-363.4 852.38,-363.4 852.38,-363.4 846.38,-363.4 840.38,-357.4 840.38,-351.4 840.38,-351.4 840.38,-339.4 840.38,-339.4 840.38,-333.4 846.38,-327.4 852.38,-327.4 852.38,-327.4 906.08,-327.4 906.08,-327.4 912.08,-327.4 918.08,-333.4 918.08,-339.4 918.08,-339.4 918.08,-351.4 918.08,-351.4 918.08,-357.4 912.08,-363.4 906.08,-363.4"/>
<text xml:space="preserve" text-anchor="middle" x="879.23" y="-340.38" font-family="sans-serif" font-size="12.00">Digital</text>
</g>
<!-- automatizacion&#45;&gt;digital -->
<g id="edge2" class="edge">
<title>automatizacion&#45;&gt;digital</title>
<path fill="none" stroke="#888888" d="M825.47,-416.05C837.14,-400.93 854.06,-379.01 865.79,-363.81"/>
</g>
<!-- automatizacion&#45;&gt;situacion -->
<g id="edge25" class="edge">
<title>automatizacion&#45;&gt;situacion</title>
<path fill="none" stroke="#888888" stroke-dasharray="5,2" d="M749.14,-422.49C686.48,-411.28 587.94,-392.1 504.23,-368.95 501.58,-368.22 498.89,-367.44 496.17,-366.62"/>
<text xml:space="preserve" text-anchor="middle" x="645.09" y="-388.7" font-family="sans-serif" font-size="10.00">transforma</text>
</g>
<!-- fintech -->
<g id="node5" class="node">
<title>fintech</title>
<path fill="#d2e3fc" stroke="black" d="M908.71,-257.8C908.71,-257.8 849.76,-257.8 849.76,-257.8 843.76,-257.8 837.76,-251.8 837.76,-245.8 837.76,-245.8 837.76,-233.8 837.76,-233.8 837.76,-227.8 843.76,-221.8 849.76,-221.8 849.76,-221.8 908.71,-221.8 908.71,-221.8 914.71,-221.8 920.71,-227.8 920.71,-233.8 920.71,-233.8 920.71,-245.8 920.71,-245.8 920.71,-251.8 914.71,-257.8 908.71,-257.8"/>
<text xml:space="preserve" text-anchor="middle" x="879.23" y="-234.78" font-family="sans-serif" font-size="12.00">Fintech</text>
</g>
<!-- digital&#45;&gt;fintech -->
<g id="edge4" class="edge">
<title>digital&#45;&gt;fintech</title>
<path fill="none" stroke="#888888" d="M879.23,-327.29C879.23,-308.21 879.23,-277.51 879.23,-258.28"/>
</g>
<!-- startup -->
<g id="node6" class="node">
<title>startup</title>
<path fill="#d2e3fc" stroke="black" d="M906.96,-125C906.96,-125 849.51,-125 849.51,-125 843.51,-125 837.51,-119 837.51,-113 837.51,-113 837.51,-101 837.51,-101 837.51,-95 843.51,-89 849.51,-89 849.51,-89 906.96,-89 906.96,-89 912.96,-89 918.96,-95 918.96,-101 918.96,-101 918.96,-113 918.96,-113 918.96,-119 912.96,-125 906.96,-125"/>
<text xml:space="preserve" text-anchor="middle" x="878.23" y="-101.97" font-family="sans-serif" font-size="12.00">Startup</text>
</g>
<!-- fintech&#45;&gt;startup -->
<g id="edge3" class="edge">
<title>fintech&#45;&gt;startup</title>
<path fill="none" stroke="#888888" d="M879.1,-221.43C878.91,-196.41 878.55,-150.5 878.36,-125.44"/>
</g>
<!-- fintech&#45;&gt;finanzas -->
<g id="edge26" class="edge">
<title>fintech&#45;&gt;finanzas</title>
<path fill="none" stroke="#888888" stroke-dasharray="5,2" d="M921.2,-237.98C961.89,-235.41 1023.92,-226.63 1069.23,-198.25 1097.97,-180.25 1119.55,-146.03 1130.71,-125.29"/>
<text xml:space="preserve" text-anchor="middle" x="1097.51" y="-188.75" font-family="sans-serif" font-size="10.00">sector</text>
</g>
<!-- orden -->
<g id="node8" class="node">
<title>orden</title>
<path fill="#feefc3" stroke="black" d="M164.71,-363.4C164.71,-363.4 57.76,-363.4 57.76,-363.4 51.76,-363.4 45.76,-357.4 45.76,-351.4 45.76,-351.4 45.76,-339.4 45.76,-339.4 45.76,-333.4 51.76,-327.4 57.76,-327.4 57.76,-327.4 164.71,-327.4 164.71,-327.4 170.71,-327.4 176.71,-333.4 176.71,-339.4 176.71,-339.4 176.71,-351.4 176.71,-351.4 176.71,-357.4 170.71,-363.4 164.71,-363.4"/>
<text xml:space="preserve" text-anchor="middle" x="111.23" y="-340.38" font-family="sans-serif" font-size="12.00">&quot;Orden mundial&quot;</text>
</g>
<!-- sistema&#45;&gt;orden -->
<g id="edge5" class="edge">
<title>sistema&#45;&gt;orden</title>
<path fill="none" stroke="#888888" d="M203.23,-415.84C183.18,-400.7 154.23,-378.86 134.19,-363.73"/>
</g>
<!-- chokepoints -->
<g id="node9" class="node">
<title>chokepoints</title>
<path fill="#feefc3" stroke="black" d="M293.58,-363.4C293.58,-363.4 206.88,-363.4 206.88,-363.4 200.88,-363.4 194.88,-357.4 194.88,-351.4 194.88,-351.4 194.88,-339.4 194.88,-339.4 194.88,-333.4 200.88,-327.4 206.88,-327.4 206.88,-327.4 293.58,-327.4 293.58,-327.4 299.58,-327.4 305.58,-333.4 305.58,-339.4 305.58,-339.4 305.58,-351.4 305.58,-351.4 305.58,-357.4 299.58,-363.4 293.58,-363.4"/>
<text xml:space="preserve" text-anchor="middle" x="250.23" y="-340.38" font-family="sans-serif" font-size="12.00">Chokepoints</text>
</g>
<!-- sistema&#45;&gt;chokepoints -->
<g id="edge6" class="edge">
<title>sistema&#45;&gt;chokepoints</title>
<path fill="none" stroke="#888888" d="M230.97,-416.05C235.15,-400.93 241.21,-379.01 245.42,-363.81"/>
</g>
<!-- relaciones -->
<g id="node18" class="node">
<title>relaciones</title>
<path fill="#ceead6" stroke="black" d="M473.46,-257.8C473.46,-257.8 341.01,-257.8 341.01,-257.8 335.01,-257.8 329.01,-251.8 329.01,-245.8 329.01,-245.8 329.01,-233.8 329.01,-233.8 329.01,-227.8 335.01,-221.8 341.01,-221.8 341.01,-221.8 473.46,-221.8 473.46,-221.8 479.46,-221.8 485.46,-227.8 485.46,-233.8 485.46,-233.8 485.46,-245.8 485.46,-245.8 485.46,-251.8 479.46,-257.8 473.46,-257.8"/>
<text xml:space="preserve" text-anchor="middle" x="407.23" y="-234.78" font-family="sans-serif" font-size="12.00">Relaciones laborales</text>
</g>
<!-- sistema&#45;&gt;relaciones -->
<g id="edge27" class="edge">
<title>sistema&#45;&gt;relaciones</title>
<path fill="none" stroke="#888888" stroke-dasharray="5,2" d="M164.38,-415.76C101.41,-397.86 12.64,-372.18 10.23,-368.95 -2.94,-351.3 -3.75,-336.42 10.23,-319.4 49.75,-271.28 224.87,-252.12 328.86,-244.88"/>
<text xml:space="preserve" text-anchor="middle" x="23.73" y="-341.53" font-family="sans-serif" font-size="10.00">marco</text>
</g>
<!-- interconexion -->
<g id="node10" class="node">
<title>interconexion</title>
<path fill="#feefc3" stroke="black" d="M121.83,-597.94C121.83,-597.94 30.63,-597.94 30.63,-597.94 24.63,-597.94 18.63,-591.94 18.63,-585.94 18.63,-585.94 18.63,-573.94 18.63,-573.94 18.63,-567.94 24.63,-561.94 30.63,-561.94 30.63,-561.94 121.83,-561.94 121.83,-561.94 127.83,-561.94 133.83,-567.94 133.83,-573.94 133.83,-573.94 133.83,-585.94 133.83,-585.94 133.83,-591.94 127.83,-597.94 121.83,-597.94"/>
<text xml:space="preserve" text-anchor="middle" x="76.23" y="-574.91" font-family="sans-serif" font-size="12.00">Interconexión</text>
</g>
<!-- aldea -->
<g id="node11" class="node">
<title>aldea</title>
<path fill="#feefc3" stroke="black" d="M116.58,-452.2C116.58,-452.2 29.88,-452.2 29.88,-452.2 23.88,-452.2 17.88,-446.2 17.88,-440.2 17.88,-440.2 17.88,-428.2 17.88,-428.2 17.88,-422.2 23.88,-416.2 29.88,-416.2 29.88,-416.2 116.58,-416.2 116.58,-416.2 122.58,-416.2 128.58,-422.2 128.58,-428.2 128.58,-428.2 128.58,-440.2 128.58,-440.2 128.58,-446.2 122.58,-452.2 116.58,-452.2"/>
<text xml:space="preserve" text-anchor="middle" x="73.23" y="-429.18" font-family="sans-serif" font-size="12.00">Aldea global</text>
</g>
<!-- interconexion&#45;&gt;aldea -->
<g id="edge7" class="edge">
<title>interconexion&#45;&gt;aldea</title>
<path fill="none" stroke="#888888" d="M75.87,-561.6C75.29,-533.97 74.17,-480.26 73.59,-452.6"/>
</g>
<!-- nortesur -->
<g id="node12" class="node">
<title>nortesur</title>
<path fill="#feefc3" stroke="black" d="M269.58,-603.49C269.58,-603.49 182.88,-603.49 182.88,-603.49 176.88,-603.49 170.88,-597.49 170.88,-591.49 170.88,-591.49 170.88,-568.39 170.88,-568.39 170.88,-562.39 176.88,-556.39 182.88,-556.39 182.88,-556.39 269.58,-556.39 269.58,-556.39 275.58,-556.39 281.58,-562.39 281.58,-568.39 281.58,-568.39 281.58,-591.49 281.58,-591.49 281.58,-597.49 275.58,-603.49 269.58,-603.49"/>
<text xml:space="preserve" text-anchor="middle" x="226.23" y="-581.29" font-family="sans-serif" font-size="12.00">Norte Global</text>
<text xml:space="preserve" text-anchor="middle" x="226.23" y="-568.54" font-family="sans-serif" font-size="12.00">y Sur Global</text>
</g>
<!-- nortesur&#45;&gt;sistema -->
<g id="edge8" class="edge">
<title>nortesur&#45;&gt;sistema</title>
<path fill="none" stroke="#888888" d="M226.23,-556.16C226.23,-527.35 226.23,-478.37 226.23,-452.46"/>
</g>
<!-- nearshoring -->
<g id="node21" class="node">
<title>nearshoring</title>
<path fill="#ceead6" stroke="black" d="M591.83,-125C591.83,-125 506.63,-125 506.63,-125 500.63,-125 494.63,-119 494.63,-113 494.63,-113 494.63,-101 494.63,-101 494.63,-95 500.63,-89 506.63,-89 506.63,-89 591.83,-89 591.83,-89 597.83,-89 603.83,-95 603.83,-101 603.83,-101 603.83,-113 603.83,-113 603.83,-119 597.83,-125 591.83,-125"/>
<text xml:space="preserve" text-anchor="middle" x="549.23" y="-101.97" font-family="sans-serif" font-size="12.00">Nearshoring</text>
</g>
<!-- nortesur&#45;&gt;nearshoring -->
<g id="edge34" class="edge">
<title>nortesur&#45;&gt;nearshoring</title>
<path fill="none" stroke="#888888" stroke-dasharray="5,2" d="M282.07,-572.01C351.91,-563.65 475.2,-549.93 581.23,-543.45 603.53,-542.09 1369.61,-541.42 1385.23,-525.45 1421.66,-488.19 1421.61,-445.51 1385.23,-408.2 1369.91,-392.48 1009.57,-408.58 990.23,-398.2 944.47,-373.65 955.25,-319.73 990.23,-281.35 1037.12,-229.91 1163.93,-236.73 1115.23,-187 1107.75,-179.36 740.72,-181.1 730.23,-179 676.61,-168.28 618.37,-142.7 582.83,-125.35"/>
<text xml:space="preserve" text-anchor="middle" x="986.1" y="-341.53" font-family="sans-serif" font-size="10.00">asimetría</text>
</g>
<!-- sociociber&#45;&gt;aldea -->
<g id="edge31" class="edge">
<title>sociociber&#45;&gt;aldea</title>
<path fill="none" stroke="#888888" stroke-dasharray="5,2" d="M1112.63,-452.67C1067.83,-469.75 997.09,-493.9 933.23,-503.51 845.88,-516.66 219.29,-538.62 138.23,-503.51 114.46,-493.22 95.4,-469.48 84.21,-452.66"/>
<text xml:space="preserve" text-anchor="middle" x="380.23" y="-515.95" font-family="sans-serif" font-size="10.00">red global</text>
</g>
<!-- cultura -->
<g id="node14" class="node">
<title>cultura</title>
<path fill="#fad2cf" stroke="black" d="M1097.21,-603.49C1097.21,-603.49 957.26,-603.49 957.26,-603.49 951.26,-603.49 945.26,-597.49 945.26,-591.49 945.26,-591.49 945.26,-568.39 945.26,-568.39 945.26,-562.39 951.26,-556.39 957.26,-556.39 957.26,-556.39 1097.21,-556.39 1097.21,-556.39 1103.21,-556.39 1109.21,-562.39 1109.21,-568.39 1109.21,-568.39 1109.21,-591.49 1109.21,-591.49 1109.21,-597.49 1103.21,-603.49 1097.21,-603.49"/>
<text xml:space="preserve" text-anchor="middle" x="1027.23" y="-581.29" font-family="sans-serif" font-size="12.00">Cultura organizacional</text>
<text xml:space="preserve" text-anchor="middle" x="1027.23" y="-568.54" font-family="sans-serif" font-size="12.00">(Hofstede)</text>
</g>
<!-- guystanding -->
<g id="node15" class="node">
<title>guystanding</title>
<path fill="#fad2cf" stroke="black" d="M1361.21,-597.94C1361.21,-597.94 1269.26,-597.94 1269.26,-597.94 1263.26,-597.94 1257.26,-591.94 1257.26,-585.94 1257.26,-585.94 1257.26,-573.94 1257.26,-573.94 1257.26,-567.94 1263.26,-561.94 1269.26,-561.94 1269.26,-561.94 1361.21,-561.94 1361.21,-561.94 1367.21,-561.94 1373.21,-567.94 1373.21,-573.94 1373.21,-573.94 1373.21,-585.94 1373.21,-585.94 1373.21,-591.94 1367.21,-597.94 1361.21,-597.94"/>
<text xml:space="preserve" text-anchor="middle" x="1315.23" y="-574.91" font-family="sans-serif" font-size="12.00">Guy Standing</text>
</g>
<!-- guystanding&#45;&gt;sociociber -->
<g id="edge9" class="edge">
<title>guystanding&#45;&gt;sociociber</title>
<path fill="none" stroke="#888888" d="M1296.29,-561.6C1266.12,-533.97 1207.45,-480.26 1177.24,-452.6"/>
</g>
<!-- precariado -->
<g id="node22" class="node">
<title>precariado</title>
<path fill="#ceead6" stroke="black" d="M612.08,-452.2C612.08,-452.2 534.38,-452.2 534.38,-452.2 528.38,-452.2 522.38,-446.2 522.38,-440.2 522.38,-440.2 522.38,-428.2 522.38,-428.2 522.38,-422.2 528.38,-416.2 534.38,-416.2 534.38,-416.2 612.08,-416.2 612.08,-416.2 618.08,-416.2 624.08,-422.2 624.08,-428.2 624.08,-428.2 624.08,-440.2 624.08,-440.2 624.08,-446.2 618.08,-452.2 612.08,-452.2"/>
<text xml:space="preserve" text-anchor="middle" x="573.23" y="-429.18" font-family="sans-serif" font-size="12.00">Precariado</text>
</g>
<!-- guystanding&#45;&gt;precariado -->
<g id="edge32" class="edge">
<title>guystanding&#45;&gt;precariado</title>
<path fill="none" stroke="#888888" stroke-dasharray="5,2" d="M1288.25,-561.53C1276.42,-554.74 1262.1,-547.6 1248.23,-543.45 1116.07,-503.91 1076.87,-523.34 939.23,-514.2 892.85,-511.12 775.47,-516.86 730.23,-506.2 683.21,-495.12 633.03,-469.76 602.39,-452.55"/>
<text xml:space="preserve" text-anchor="middle" x="1184.84" y="-515.95" font-family="sans-serif" font-size="10.00">teoría</text>
</g>
<!-- policymemo -->
<g id="node16" class="node">
<title>policymemo</title>
<path fill="#fad2cf" stroke="black" d="M1227.33,-597.94C1227.33,-597.94 1139.13,-597.94 1139.13,-597.94 1133.13,-597.94 1127.13,-591.94 1127.13,-585.94 1127.13,-585.94 1127.13,-573.94 1127.13,-573.94 1127.13,-567.94 1133.13,-561.94 1139.13,-561.94 1139.13,-561.94 1227.33,-561.94 1227.33,-561.94 1233.33,-561.94 1239.33,-567.94 1239.33,-573.94 1239.33,-573.94 1239.33,-585.94 1239.33,-585.94 1239.33,-591.94 1233.33,-597.94 1227.33,-597.94"/>
<text xml:space="preserve" text-anchor="middle" x="1183.23" y="-574.91" font-family="sans-serif" font-size="12.00">Policy Memo</text>
</g>
<!-- policymemo&#45;&gt;curso -->
<g id="edge35" class="edge">
<title>policymemo&#45;&gt;curso</title>
<path fill="none" stroke="#888888" stroke-dasharray="5,2" d="M1173.63,-598.1C1162.88,-616.27 1143.58,-643.14 1118.23,-654.7 1043.41,-688.79 1014.62,-666.38 933.23,-654.7 867.01,-645.19 794,-622.47 743.13,-604.55"/>
<text xml:space="preserve" text-anchor="middle" x="946.23" y="-667.24" font-family="sans-serif" font-size="10.00">herramienta</text>
</g>
<!-- situacion&#45;&gt;relaciones -->
<g id="edge10" class="edge">
<title>situacion&#45;&gt;relaciones</title>
<path fill="none" stroke="#888888" d="M432.13,-321.41C426.24,-302.33 417.98,-275.61 412.62,-258.26"/>
</g>
<!-- regulacion -->
<g id="node19" class="node">
<title>regulacion</title>
<path fill="#ceead6" stroke="black" d="M464.46,-125C464.46,-125 344.01,-125 344.01,-125 338.01,-125 332.01,-119 332.01,-113 332.01,-113 332.01,-101 332.01,-101 332.01,-95 338.01,-89 344.01,-89 344.01,-89 464.46,-89 464.46,-89 470.46,-89 476.46,-95 476.46,-101 476.46,-101 476.46,-113 476.46,-113 476.46,-119 470.46,-125 464.46,-125"/>
<text xml:space="preserve" text-anchor="middle" x="404.23" y="-101.97" font-family="sans-serif" font-size="12.00">Regulación laboral</text>
</g>
<!-- relaciones&#45;&gt;regulacion -->
<g id="edge11" class="edge">
<title>relaciones&#45;&gt;regulacion</title>
<path fill="none" stroke="#888888" d="M406.83,-221.43C406.26,-196.41 405.2,-150.5 404.63,-125.44"/>
</g>
<!-- relaciones&#45;&gt;nearshoring -->
<g id="edge13" class="edge">
<title>relaciones&#45;&gt;nearshoring</title>
<path fill="none" stroke="#888888" d="M432.4,-221.31C448.16,-209.94 468.56,-194.4 485.23,-179 503.64,-162 522.6,-140.35 535.05,-125.45"/>
</g>
<!-- regulacion&#45;&gt;cultura -->
<g id="edge29" class="edge">
<title>regulacion&#45;&gt;cultura</title>
<path fill="none" stroke="#888888" stroke-dasharray="5,2" d="M417.53,-125.3C432.02,-142.6 456.94,-168.15 485.23,-179 501.57,-185.27 1101.43,-176.24 1115.23,-187 1157.61,-220.03 1110.45,-263.77 1146.23,-303.85 1231.08,-398.89 1341.38,-302.98 1413.23,-408.2 1443.3,-452.24 1441.2,-500.26 1404.23,-525.45 1351.61,-561.31 1180.41,-529.72 1118.23,-543.45 1104.82,-546.41 1090.78,-551.05 1077.86,-556.01"/>
<text xml:space="preserve" text-anchor="middle" x="1392.6" y="-347.15" font-family="sans-serif" font-size="10.00">dimensión</text>
<text xml:space="preserve" text-anchor="middle" x="1392.6" y="-335.9" font-family="sans-serif" font-size="10.00">cultural</text>
</g>
<!-- arbitrage -->
<g id="node20" class="node">
<title>arbitrage</title>
<path fill="#ceead6" stroke="black" d="M454.33,-52C454.33,-52 354.13,-52 354.13,-52 348.13,-52 342.13,-46 342.13,-40 342.13,-40 342.13,-28 342.13,-28 342.13,-22 348.13,-16 354.13,-16 354.13,-16 454.33,-16 454.33,-16 460.33,-16 466.33,-22 466.33,-28 466.33,-28 466.33,-40 466.33,-40 466.33,-46 460.33,-52 454.33,-52"/>
<text xml:space="preserve" text-anchor="middle" x="404.23" y="-28.98" font-family="sans-serif" font-size="12.00">Labor arbitrage</text>
</g>
<!-- regulacion&#45;&gt;arbitrage -->
<g id="edge12" class="edge">
<title>regulacion&#45;&gt;arbitrage</title>
<path fill="none" stroke="#888888" d="M404.23,-88.81C404.23,-77.65 404.23,-63.16 404.23,-52.03"/>
</g>
<!-- nearshoring&#45;&gt;aldea -->
<g id="edge28" class="edge">
<title>nearshoring&#45;&gt;aldea</title>
<path fill="none" stroke="#888888" stroke-dasharray="5,2" d="M582.82,-125.39C618.36,-142.76 676.59,-168.37 730.23,-179 742.79,-181.49 1182.25,-177.87 1191.23,-187 1194.73,-190.57 1192.65,-193.46 1191.23,-198.25 1165.5,-285.01 1155.16,-318.2 1080.23,-368.95 1025.08,-406.31 999.48,-391.25 933.23,-398.2 845.37,-407.41 224.98,-391.53 138.23,-408.2 129.44,-409.89 120.31,-412.69 111.75,-415.82"/>
<text xml:space="preserve" text-anchor="middle" x="1184.51" y="-294.35" font-family="sans-serif" font-size="10.00">geografía</text>
<text xml:space="preserve" text-anchor="middle" x="1184.51" y="-283.1" font-family="sans-serif" font-size="10.00">del trabajo</text>
</g>
<!-- precariado&#45;&gt;situacion -->
<g id="edge16" class="edge">
<title>precariado&#45;&gt;situacion</title>
<path fill="none" stroke="#888888" d="M546.44,-415.84C525.81,-402.49 497.13,-383.9 474.62,-369.32"/>
</g>
<!-- gigeconomy -->
<g id="node23" class="node">
<title>gigeconomy</title>
<path fill="#ceead6" stroke="black" d="M615.08,-363.4C615.08,-363.4 525.38,-363.4 525.38,-363.4 519.38,-363.4 513.38,-357.4 513.38,-351.4 513.38,-351.4 513.38,-339.4 513.38,-339.4 513.38,-333.4 519.38,-327.4 525.38,-327.4 525.38,-327.4 615.08,-327.4 615.08,-327.4 621.08,-327.4 627.08,-333.4 627.08,-339.4 627.08,-339.4 627.08,-351.4 627.08,-351.4 627.08,-357.4 621.08,-363.4 615.08,-363.4"/>
<text xml:space="preserve" text-anchor="middle" x="570.23" y="-340.38" font-family="sans-serif" font-size="12.00">Gig economy</text>
</g>
<!-- precariado&#45;&gt;gigeconomy -->
<g id="edge14" class="edge">
<title>precariado&#45;&gt;gigeconomy</title>
<path fill="none" stroke="#888888" d="M572.64,-416.05C572.11,-400.93 571.36,-379.01 570.83,-363.81"/>
</g>
<!-- gigeconomy&#45;&gt;digital -->
<g id="edge33" class="edge">
<title>gigeconomy&#45;&gt;digital</title>
<path fill="none" stroke="#888888" stroke-dasharray="5,2" d="M627.55,-362.45C688.22,-379.36 779.82,-401.34 813.73,-390.75 830.76,-385.43 847.26,-373.95 859.44,-363.88"/>
<text xml:space="preserve" text-anchor="middle" x="788.23" y="-388.7" font-family="sans-serif" font-size="10.00">plataformas</text>
</g>
<!-- nuevasformas -->
<g id="node24" class="node">
<title>nuevasformas</title>
<path fill="#ceead6" stroke="black" d="M614.96,-263.35C614.96,-263.35 515.51,-263.35 515.51,-263.35 509.51,-263.35 503.51,-257.35 503.51,-251.35 503.51,-251.35 503.51,-228.25 503.51,-228.25 503.51,-222.25 509.51,-216.25 515.51,-216.25 515.51,-216.25 614.96,-216.25 614.96,-216.25 620.96,-216.25 626.96,-222.25 626.96,-228.25 626.96,-228.25 626.96,-251.35 626.96,-251.35 626.96,-257.35 620.96,-263.35 614.96,-263.35"/>
<text xml:space="preserve" text-anchor="middle" x="565.23" y="-241.15" font-family="sans-serif" font-size="12.00">Nuevas formas</text>
<text xml:space="preserve" text-anchor="middle" x="565.23" y="-228.4" font-family="sans-serif" font-size="12.00">de empleo</text>
</g>
<!-- gigeconomy&#45;&gt;nuevasformas -->
<g id="edge15" class="edge">
<title>gigeconomy&#45;&gt;nuevasformas</title>
<path fill="none" stroke="#888888" d="M569.4,-327.29C568.57,-309.94 567.26,-282.96 566.34,-263.76"/>
</g>
<!-- beneficios -->
<g id="node25" class="node">
<title>beneficios</title>
<path fill="#e9d2fd" stroke="black" d="M1062.96,-125C1062.96,-125 987.51,-125 987.51,-125 981.51,-125 975.51,-119 975.51,-113 975.51,-113 975.51,-101 975.51,-101 975.51,-95 981.51,-89 987.51,-89 987.51,-89 1062.96,-89 1062.96,-89 1068.96,-89 1074.96,-95 1074.96,-101 1074.96,-101 1074.96,-113 1074.96,-113 1074.96,-119 1068.96,-125 1062.96,-125"/>
<text xml:space="preserve" text-anchor="middle" x="1025.23" y="-101.97" font-family="sans-serif" font-size="12.00">Beneficios</text>
</g>
<!-- oportunidades -->
<g id="node26" class="node">
<title>oportunidades</title>
<path fill="#e9d2fd" stroke="black" d="M1068.21,-52C1068.21,-52 970.26,-52 970.26,-52 964.26,-52 958.26,-46 958.26,-40 958.26,-40 958.26,-28 958.26,-28 958.26,-22 964.26,-16 970.26,-16 970.26,-16 1068.21,-16 1068.21,-16 1074.21,-16 1080.21,-22 1080.21,-28 1080.21,-28 1080.21,-40 1080.21,-40 1080.21,-46 1074.21,-52 1068.21,-52"/>
<text xml:space="preserve" text-anchor="middle" x="1019.23" y="-28.98" font-family="sans-serif" font-size="12.00">Oportunidades</text>
</g>
<!-- beneficios&#45;&gt;oportunidades -->
<g id="edge17" class="edge">
<title>beneficios&#45;&gt;oportunidades</title>
<path fill="none" stroke="#888888" d="M1023.78,-88.81C1022.83,-77.65 1021.61,-63.16 1020.67,-52.03"/>
</g>
<!-- riesgo -->
<g id="node27" class="node">
<title>riesgo</title>
<path fill="#e9d2fd" stroke="black" d="M1167.96,-52C1167.96,-52 1110.51,-52 1110.51,-52 1104.51,-52 1098.51,-46 1098.51,-40 1098.51,-40 1098.51,-28 1098.51,-28 1098.51,-22 1104.51,-16 1110.51,-16 1110.51,-16 1167.96,-16 1167.96,-16 1173.96,-16 1179.96,-22 1179.96,-28 1179.96,-28 1179.96,-40 1179.96,-40 1179.96,-46 1173.96,-52 1167.96,-52"/>
<text xml:space="preserve" text-anchor="middle" x="1139.23" y="-28.98" font-family="sans-serif" font-size="12.00">Riesgo</text>
</g>
<!-- riesgo&#45;&gt;chokepoints -->
<g id="edge30" class="edge">
<title>riesgo&#45;&gt;chokepoints</title>
<path fill="none" stroke="#888888" stroke-dasharray="5,2" d="M1098.13,-49.32C1095.13,-50.26 1092.14,-51.16 1089.23,-52 1035.25,-67.5 1007.75,-43.18 966.23,-81 932.25,-111.95 967.97,-148.91 933.23,-179 863.89,-239.05 817.02,-186.57 730.23,-216.25 687.14,-230.99 682.39,-248.81 639.23,-263.35 501.57,-309.73 457.43,-281.39 317.23,-319.4 309.44,-321.51 301.29,-324.16 293.46,-326.94"/>
<text xml:space="preserve" text-anchor="middle" x="951.84" y="-188.75" font-family="sans-serif" font-size="10.00">vulnerabilidad</text>
</g>
<!-- inclusion -->
<g id="node28" class="node">
<title>inclusion</title>
<path fill="#e9d2fd" stroke="black" d="M1332.58,-52C1332.58,-52 1209.88,-52 1209.88,-52 1203.88,-52 1197.88,-46 1197.88,-40 1197.88,-40 1197.88,-28 1197.88,-28 1197.88,-22 1203.88,-16 1209.88,-16 1209.88,-16 1332.58,-16 1332.58,-16 1338.58,-16 1344.58,-22 1344.58,-28 1344.58,-28 1344.58,-40 1344.58,-40 1344.58,-46 1338.58,-52 1332.58,-52"/>
<text xml:space="preserve" text-anchor="middle" x="1271.23" y="-28.98" font-family="sans-serif" font-size="12.00">Inclusión financiera</text>
</g>
<!-- finanzas&#45;&gt;riesgo -->
<g id="edge19" class="edge">
<title>finanzas&#45;&gt;riesgo</title>
<path fill="none" stroke="#888888" d="M1139.23,-88.81C1139.23,-77.65 1139.23,-63.16 1139.23,-52.03"/>
</g>
<!-- finanzas&#45;&gt;inclusion -->
<g id="edge18" class="edge">
<title>finanzas&#45;&gt;inclusion</title>
<path fill="none" stroke="#888888" d="M1171.52,-88.63C1191.98,-77.63 1218.34,-63.45 1238.82,-52.44"/>
</g>
</g>
</svg>
