<?xml version="1.0" encoding="UTF-8" standalone="no"?>
<!DOCTYPE svg PUBLIC "-//W3C//DTD SVG 1.1//EN"
 "http://www.w3.org/Graphics/SVG/1.1/DTD/svg11.dtd">
<!-- Generated by graphviz version 14.1.1 (20251213.1925)
 -->
<!-- Title: sesion01 Pages: 1 -->
<svg width="1675pt" height="752pt"
 viewBox="0.00 0.00 1675.00 752.00" xmlns="http://www.w3.org/2000/svg" xmlns:xlink="http://www.w3.org/1999/xlink">
<g id="graph0" class="graph" transform="scale(1 1) rotate(0) translate(4 747.92)">
<title>sesion01</title>
<polygon fill="#fafafa" stroke="none" points="-4,4 -4,-747.92 1671,-747.92 1671,4 -4,4"/>
<text xml:space="preserve" text-anchor="middle" x="833.5" y="-726.62" font-family="sans-serif" font-size="14.00">Sesión 1 — Conceptos emergentes</text>
<text xml:space="preserve" text-anchor="middle" x="833.5" y="-711.62" font-family="sans-serif" font-size="14.00">Globalización y Empleo 2026&#45;2 · FCA UNAM</text>
<g id="clust1" class="cluster">
<title>cluster_tech</title>
<polygon fill="#e8f0fe" stroke="#7baaf7" points="8,-217.85 8,-595.7 203,-595.7 203,-217.85 8,-217.85"/>
<text xml:space="preserve" text-anchor="middle" x="105.5" y="-578.4" font-family="sans-serif" font-size="14.00">Tecnología y economía digital</text>
</g>
<g id="clust2" class="cluster">
<title>cluster_sistema</title>
<polygon fill="#fef9e7" stroke="#f9ab00" points="1255,-8 1255,-171.8 1659,-171.8 1659,-8 1255,-8"/>
<text xml:space="preserve" text-anchor="middle" x="1457" y="-154.5" font-family="sans-serif" font-size="14.00">Sistema internacional</text>
</g>
<g id="clust3" class="cluster">
<title>cluster_marcos</title>
<polygon fill="#fce8e6" stroke="#f28b82" points="917,-91.25 917,-177.35 1247,-177.35 1247,-91.25 917,-91.25"/>
<text xml:space="preserve" text-anchor="middle" x="1082" y="-160.05" font-family="sans-serif" font-size="14.00">Marcos conceptuales</text>
</g>
<g id="clust4" class="cluster">
<title>cluster_trabajo</title>
<polygon fill="#e6f4ea" stroke="#81c995" points="621,-96.8 621,-491.45 909,-491.45 909,-96.8 621,-96.8"/>
<text xml:space="preserve" text-anchor="middle" x="765" y="-474.15" font-family="sans-serif" font-size="14.00">Mundo laboral</text>
</g>
<g id="clust5" class="cluster">
<title>cluster_impactos</title>
<polygon fill="#f3e8fd" stroke="#c58af9" points="211,-96.8 211,-292.85 613,-292.85 613,-96.8 211,-96.8"/>
<text xml:space="preserve" text-anchor="middle" x="412" y="-275.55" font-family="sans-serif" font-size="14.00">Impactos</text>
</g>
<!-- curso -->
<g id="node1" class="node">
<title>curso</title>
<ellipse fill="#1a73e8" stroke="black" stroke-width="0" cx="754" cy="-669.44" rx="88.35" ry="36.49"/>
<text xml:space="preserve" text-anchor="middle" x="754" y="-671.14" font-family="sans-serif" font-size="14.00" fill="white">Globalización</text>
<text xml:space="preserve" text-anchor="middle" x="754" y="-656.14" font-family="sans-serif" font-size="14.00" fill="white">y Empleo</text>
</g>
<!-- automatizacion -->
<g id="node2" class="node">
<title>automatizacion</title>
<path fill="#d2e3fc" stroke="black" d="M182.85,-564.7C182.85,-564.7 81.15,-564.7 81.15,-564.7 75.15,-564.7 69.15,-558.7 69.15,-552.7 69.15,-552.7 69.15,-540.7 69.15,-540.7 69.15,-534.7 75.15,-528.7 81.15,-528.7 81.15,-528.7 182.85,-528.7 182.85,-528.7 188.85,-528.7 194.85,-534.7 194.85,-540.7 194.85,-540.7 194.85,-552.7 194.85,-552.7 194.85,-558.7 188.85,-564.7 182.85,-564.7"/>
<text xml:space="preserve" text-anchor="middle" x="132" y="-541.68" font-family="sans-serif" font-size="12.00">Automatización</text>
</g>
<!-- curso&#45;&#45;automatizacion -->
<g id="edge15" class="edge">
<title>curso&#45;&#45;automatizacion</title>
<path fill="none" stroke="#888888" d="M672.3,-655.91C607.83,-645.73 515.72,-630.56 435.5,-614.95 352.06,-598.71 256.41,-577 195.16,-562.69"/>
<text xml:space="preserve" text-anchor="middle" x="452.75" y="-605.45" font-family="sans-serif" font-size="10.00">impacto</text>
</g>
<!-- sistema -->
<g id="node7" class="node">
<title>sistema</title>
<path fill="#feefc3" stroke="black" d="M1543.35,-140.8C1543.35,-140.8 1408.65,-140.8 1408.65,-140.8 1402.65,-140.8 1396.65,-134.8 1396.65,-128.8 1396.65,-128.8 1396.65,-116.8 1396.65,-116.8 1396.65,-110.8 1402.65,-104.8 1408.65,-104.8 1408.65,-104.8 1543.35,-104.8 1543.35,-104.8 1549.35,-104.8 1555.35,-110.8 1555.35,-116.8 1555.35,-116.8 1555.35,-128.8 1555.35,-128.8 1555.35,-134.8 1549.35,-140.8 1543.35,-140.8"/>
<text xml:space="preserve" text-anchor="middle" x="1476" y="-117.78" font-family="sans-serif" font-size="12.00">Sistema internacional</text>
</g>
<!-- curso&#45;&#45;sistema -->
<g id="edge17" class="edge">
<title>curso&#45;&#45;sistema</title>
<path fill="none" stroke="#888888" d="M842.2,-668.36C1006.07,-665.81 1341,-648.3 1341,-547.7 1341,-547.7 1341,-547.7 1341,-242.85 1341,-214.57 1408.49,-166.77 1448.03,-141.19"/>
<text xml:space="preserve" text-anchor="middle" x="1359.75" y="-385.85" font-family="sans-serif" font-size="10.00">contexto</text>
</g>
<!-- sociociber -->
<g id="node12" class="node">
<title>sociociber</title>
<path fill="#fad2cf" stroke="black" d="M1227.22,-140.8C1227.22,-140.8 1118.78,-140.8 1118.78,-140.8 1112.78,-140.8 1106.78,-134.8 1106.78,-128.8 1106.78,-128.8 1106.78,-116.8 1106.78,-116.8 1106.78,-110.8 1112.78,-104.8 1118.78,-104.8 1118.78,-104.8 1227.22,-104.8 1227.22,-104.8 1233.22,-104.8 1239.22,-110.8 1239.22,-116.8 1239.22,-116.8 1239.22,-128.8 1239.22,-128.8 1239.22,-134.8 1233.22,-140.8 1227.22,-140.8"/>
<text xml:space="preserve" text-anchor="middle" x="1173" y="-117.78" font-family="sans-serif" font-size="12.00">Sociocibernética</text>
</g>
<!-- curso&#45;&#45;sociociber -->
<g id="edge18" class="edge">
<title>curso&#45;&#45;sociociber</title>
<path fill="none" stroke="#888888" d="M837.28,-657.69C944.45,-641.49 1117,-606.31 1117,-547.7 1117,-547.7 1117,-547.7 1117,-242.85 1117,-203.56 1142.28,-163.33 1158.87,-141.15"/>
<text xml:space="preserve" text-anchor="middle" x="1150.38" y="-385.85" font-family="sans-serif" font-size="10.00">enfoque teórico</text>
</g>
<!-- situacion -->
<g id="node14" class="node">
<title>situacion</title>
<path fill="#ceead6" stroke="black" d="M798.48,-460.45C798.48,-460.45 709.52,-460.45 709.52,-460.45 703.52,-460.45 697.52,-454.45 697.52,-448.45 697.52,-448.45 697.52,-425.35 697.52,-425.35 697.52,-419.35 703.52,-413.35 709.52,-413.35 709.52,-413.35 798.48,-413.35 798.48,-413.35 804.48,-413.35 810.48,-419.35 810.48,-425.35 810.48,-425.35 810.48,-448.45 810.48,-448.45 810.48,-454.45 804.48,-460.45 798.48,-460.45"/>
<text xml:space="preserve" text-anchor="middle" x="754" y="-438.25" font-family="sans-serif" font-size="12.00">Situación del</text>
<text xml:space="preserve" text-anchor="middle" x="754" y="-425.5" font-family="sans-serif" font-size="12.00">empleo</text>
</g>
<!-- curso&#45;&#45;situacion -->
<g id="edge16" class="edge">
<title>curso&#45;&#45;situacion</title>
<path fill="none" stroke="#888888" d="M754,-633.17C754,-585.37 754,-501.34 754,-460.91"/>
<text xml:space="preserve" text-anchor="middle" x="786.62" y="-542.83" font-family="sans-serif" font-size="10.00">consecuencias</text>
</g>
<!-- finanzas -->
<g id="node23" class="node">
<title>finanzas</title>
<path fill="#e9d2fd" stroke="black" d="M434.35,-261.85C434.35,-261.85 365.65,-261.85 365.65,-261.85 359.65,-261.85 353.65,-255.85 353.65,-249.85 353.65,-249.85 353.65,-237.85 353.65,-237.85 353.65,-231.85 359.65,-225.85 365.65,-225.85 365.65,-225.85 434.35,-225.85 434.35,-225.85 440.35,-225.85 446.35,-231.85 446.35,-237.85 446.35,-237.85 446.35,-249.85 446.35,-249.85 446.35,-255.85 440.35,-261.85 434.35,-261.85"/>
<text xml:space="preserve" text-anchor="middle" x="400" y="-238.82" font-family="sans-serif" font-size="12.00">Finanzas</text>
</g>
<!-- curso&#45;&#45;finanzas -->
<g id="edge19" class="edge">
<title>curso&#45;&#45;finanzas</title>
<path fill="none" stroke="#888888" d="M666.71,-664.69C587.83,-656.06 484,-629.22 484,-547.7 484,-547.7 484,-547.7 484,-347.1 484,-310.57 451.6,-279.97 427.04,-262.03"/>
<text xml:space="preserve" text-anchor="middle" x="506.12" y="-438.65" font-family="sans-serif" font-size="10.00">dimensión</text>
<text xml:space="preserve" text-anchor="middle" x="506.12" y="-427.4" font-family="sans-serif" font-size="10.00">financiera</text>
</g>
<!-- ia -->
<g id="node3" class="node">
<title>ia</title>
<path fill="#d2e3fc" stroke="black" d="M84.72,-454.9C84.72,-454.9 45.28,-454.9 45.28,-454.9 39.28,-454.9 33.28,-448.9 33.28,-442.9 33.28,-442.9 33.28,-430.9 33.28,-430.9 33.28,-424.9 39.28,-418.9 45.28,-418.9 45.28,-418.9 84.72,-418.9 84.72,-418.9 90.72,-418.9 96.72,-424.9 96.72,-430.9 96.72,-430.9 96.72,-442.9 96.72,-442.9 96.72,-448.9 90.72,-454.9 84.72,-454.9"/>
<text xml:space="preserve" text-anchor="middle" x="65" y="-431.88" font-family="sans-serif" font-size="12.00">&quot;IA&quot;</text>
</g>
<!-- automatizacion&#45;&#45;ia -->
<g id="edge1" class="edge">
<title>automatizacion&#45;&#45;ia</title>
<path fill="none" stroke="#888888" d="M121.24,-528.38C108.73,-508.26 88.23,-475.28 75.74,-455.18"/>
</g>
<!-- digital -->
<g id="node4" class="node">
<title>digital</title>
<path fill="#d2e3fc" stroke="black" d="M180.85,-454.9C180.85,-454.9 127.15,-454.9 127.15,-454.9 121.15,-454.9 115.15,-448.9 115.15,-442.9 115.15,-442.9 115.15,-430.9 115.15,-430.9 115.15,-424.9 121.15,-418.9 127.15,-418.9 127.15,-418.9 180.85,-418.9 180.85,-418.9 186.85,-418.9 192.85,-424.9 192.85,-430.9 192.85,-430.9 192.85,-442.9 192.85,-442.9 192.85,-448.9 186.85,-454.9 180.85,-454.9"/>
<text xml:space="preserve" text-anchor="middle" x="154" y="-431.88" font-family="sans-serif" font-size="12.00">Digital</text>
</g>
<!-- automatizacion&#45;&#45;digital -->
<g id="edge2" class="edge">
<title>automatizacion&#45;&#45;digital</title>
<path fill="none" stroke="#888888" d="M135.53,-528.38C139.64,-508.26 146.37,-475.28 150.47,-455.18"/>
</g>
<!-- automatizacion&#45;&#45;situacion -->
<g id="edge20" class="edge">
<title>automatizacion&#45;&#45;situacion</title>
<path fill="none" stroke="#888888" stroke-dasharray="5,2" d="M195.02,-539.16C274.1,-530.5 413.71,-513.68 532,-491.45 588.69,-480.8 652.66,-464.95 697.31,-453.26"/>
<text xml:space="preserve" text-anchor="middle" x="501.2" y="-501.2" font-family="sans-serif" font-size="10.00">transforma</text>
</g>
<!-- fintech -->
<g id="node5" class="node">
<title>fintech</title>
<path fill="#d2e3fc" stroke="black" d="M183.47,-366.1C183.47,-366.1 124.53,-366.1 124.53,-366.1 118.53,-366.1 112.53,-360.1 112.53,-354.1 112.53,-354.1 112.53,-342.1 112.53,-342.1 112.53,-336.1 118.53,-330.1 124.53,-330.1 124.53,-330.1 183.47,-330.1 183.47,-330.1 189.47,-330.1 195.47,-336.1 195.47,-342.1 195.47,-342.1 195.47,-354.1 195.47,-354.1 195.47,-360.1 189.47,-366.1 183.47,-366.1"/>
<text xml:space="preserve" text-anchor="middle" x="154" y="-343.08" font-family="sans-serif" font-size="12.00">Fintech</text>
</g>
<!-- digital&#45;&#45;fintech -->
<g id="edge4" class="edge">
<title>digital&#45;&#45;fintech</title>
<path fill="none" stroke="#888888" d="M148.5,-418.75C146.84,-403.63 146.83,-381.71 148.47,-366.51"/>
</g>
<!-- digital&#45;&#45;fintech -->
<!-- startup -->
<g id="node6" class="node">
<title>startup</title>
<path fill="#d2e3fc" stroke="black" d="M182.72,-261.85C182.72,-261.85 125.28,-261.85 125.28,-261.85 119.28,-261.85 113.28,-255.85 113.28,-249.85 113.28,-249.85 113.28,-237.85 113.28,-237.85 113.28,-231.85 119.28,-225.85 125.28,-225.85 125.28,-225.85 182.72,-225.85 182.72,-225.85 188.72,-225.85 194.72,-231.85 194.72,-237.85 194.72,-237.85 194.72,-249.85 194.72,-249.85 194.72,-255.85 188.72,-261.85 182.72,-261.85"/>
<text xml:space="preserve" text-anchor="middle" x="154" y="-238.82" font-family="sans-serif" font-size="12.00">Startup</text>
</g>
<!-- fintech&#45;&#45;startup -->
<g id="edge3" class="edge">
<title>fintech&#45;&#45;startup</title>
<path fill="none" stroke="#888888" d="M154,-329.75C154,-310.95 154,-281.12 154,-262.28"/>
</g>
<!-- fintech&#45;&#45;finanzas -->
<g id="edge22" class="edge">
<title>fintech&#45;&#45;finanzas</title>
<path fill="none" stroke="#888888" stroke-dasharray="5,2" d="M195.76,-339.61C234.42,-331.59 292.74,-316.7 339,-292.85 354.69,-284.76 370.3,-272.38 381.8,-262.22"/>
<text xml:space="preserve" text-anchor="middle" x="333.67" y="-302.6" font-family="sans-serif" font-size="10.00">sector</text>
</g>
<!-- orden -->
<g id="node8" class="node">
<title>orden</title>
<path fill="#feefc3" stroke="black" d="M1639.47,-52C1639.47,-52 1532.53,-52 1532.53,-52 1526.53,-52 1520.53,-46 1520.53,-40 1520.53,-40 1520.53,-28 1520.53,-28 1520.53,-22 1526.53,-16 1532.53,-16 1532.53,-16 1639.47,-16 1639.47,-16 1645.47,-16 1651.47,-22 1651.47,-28 1651.47,-28 1651.47,-40 1651.47,-40 1651.47,-46 1645.47,-52 1639.47,-52"/>
<text xml:space="preserve" text-anchor="middle" x="1586" y="-28.98" font-family="sans-serif" font-size="12.00">&quot;Orden mundial&quot;</text>
</g>
<!-- sistema&#45;&#45;orden -->
<g id="edge5" class="edge">
<title>sistema&#45;&#45;orden</title>
<path fill="none" stroke="#888888" d="M1498,-104.44C1517.18,-89.3 1544.87,-67.46 1564.04,-52.33"/>
</g>
<!-- chokepoints -->
<g id="node9" class="node">
<title>chokepoints</title>
<path fill="#feefc3" stroke="black" d="M1490.35,-52C1490.35,-52 1403.65,-52 1403.65,-52 1397.65,-52 1391.65,-46 1391.65,-40 1391.65,-40 1391.65,-28 1391.65,-28 1391.65,-22 1397.65,-16 1403.65,-16 1403.65,-16 1490.35,-16 1490.35,-16 1496.35,-16 1502.35,-22 1502.35,-28 1502.35,-28 1502.35,-40 1502.35,-40 1502.35,-46 1496.35,-52 1490.35,-52"/>
<text xml:space="preserve" text-anchor="middle" x="1447" y="-28.98" font-family="sans-serif" font-size="12.00">Chokepoints</text>
</g>
<!-- sistema&#45;&#45;chokepoints -->
<g id="edge6" class="edge">
<title>sistema&#45;&#45;chokepoints</title>
<path fill="none" stroke="#888888" d="M1470.27,-104.65C1465.22,-89.53 1457.89,-67.61 1452.82,-52.41"/>
</g>
<!-- relaciones -->
<g id="node15" class="node">
<title>relaciones</title>
<path fill="#ceead6" stroke="black" d="M855.23,-366.1C855.23,-366.1 722.77,-366.1 722.77,-366.1 716.77,-366.1 710.77,-360.1 710.77,-354.1 710.77,-354.1 710.77,-342.1 710.77,-342.1 710.77,-336.1 716.77,-330.1 722.77,-330.1 722.77,-330.1 855.23,-330.1 855.23,-330.1 861.23,-330.1 867.23,-336.1 867.23,-342.1 867.23,-342.1 867.23,-354.1 867.23,-354.1 867.23,-360.1 861.23,-366.1 855.23,-366.1"/>
<text xml:space="preserve" text-anchor="middle" x="789" y="-343.08" font-family="sans-serif" font-size="12.00">Relaciones laborales</text>
</g>
<!-- sistema&#45;&#45;relaciones -->
<g id="edge24" class="edge">
<title>sistema&#45;&#45;relaciones</title>
<path fill="none" stroke="#888888" stroke-dasharray="5,2" d="M1453.44,-141.18C1436.41,-153.36 1411.95,-168.92 1388,-177.35 1362.21,-186.43 1353.74,-179.62 1327,-185.35 1142.95,-224.82 930.63,-296.71 837.27,-329.7"/>
<text xml:space="preserve" text-anchor="middle" x="1199.15" y="-239.97" font-family="sans-serif" font-size="10.00">marco</text>
</g>
<!-- interconexion -->
<g id="node10" class="node">
<title>interconexion</title>
<path fill="#feefc3" stroke="black" d="M1366.6,-140.8C1366.6,-140.8 1275.4,-140.8 1275.4,-140.8 1269.4,-140.8 1263.4,-134.8 1263.4,-128.8 1263.4,-128.8 1263.4,-116.8 1263.4,-116.8 1263.4,-110.8 1269.4,-104.8 1275.4,-104.8 1275.4,-104.8 1366.6,-104.8 1366.6,-104.8 1372.6,-104.8 1378.6,-110.8 1378.6,-116.8 1378.6,-116.8 1378.6,-128.8 1378.6,-128.8 1378.6,-134.8 1372.6,-140.8 1366.6,-140.8"/>
<text xml:space="preserve" text-anchor="middle" x="1321" y="-117.78" font-family="sans-serif" font-size="12.00">Interconexión</text>
</g>
<!-- aldea -->
<g id="node11" class="node">
<title>aldea</title>
<path fill="#feefc3" stroke="black" d="M1361.35,-52C1361.35,-52 1274.65,-52 1274.65,-52 1268.65,-52 1262.65,-46 1262.65,-40 1262.65,-40 1262.65,-28 1262.65,-28 1262.65,-22 1268.65,-16 1274.65,-16 1274.65,-16 1361.35,-16 1361.35,-16 1367.35,-16 1373.35,-22 1373.35,-28 1373.35,-28 1373.35,-40 1373.35,-40 1373.35,-46 1367.35,-52 1361.35,-52"/>
<text xml:space="preserve" text-anchor="middle" x="1318" y="-28.98" font-family="sans-serif" font-size="12.00">Aldea global</text>
</g>
<!-- interconexion&#45;&#45;aldea -->
<g id="edge7" class="edge">
<title>interconexion&#45;&#45;aldea</title>
<path fill="none" stroke="#888888" d="M1314.9,-104.65C1312.73,-89.53 1311.96,-67.61 1313.07,-52.41"/>
</g>
<!-- aldea&#45;&#45;interconexion -->
<!-- sociociber&#45;&#45;aldea -->
<g id="edge29" class="edge">
<title>sociociber&#45;&#45;aldea</title>
<path fill="none" stroke="#888888" stroke-dasharray="5,2" d="M1201.99,-104.44C1227.28,-89.3 1263.78,-67.46 1289.06,-52.33"/>
<text xml:space="preserve" text-anchor="middle" x="1279.49" y="-71.75" font-family="sans-serif" font-size="10.00">red global</text>
</g>
<!-- cultura -->
<g id="node13" class="node">
<title>cultura</title>
<path fill="#fad2cf" stroke="black" d="M1076.97,-146.35C1076.97,-146.35 937.02,-146.35 937.02,-146.35 931.02,-146.35 925.02,-140.35 925.02,-134.35 925.02,-134.35 925.02,-111.25 925.02,-111.25 925.02,-105.25 931.02,-99.25 937.02,-99.25 937.02,-99.25 1076.97,-99.25 1076.97,-99.25 1082.97,-99.25 1088.97,-105.25 1088.97,-111.25 1088.97,-111.25 1088.97,-134.35 1088.97,-134.35 1088.97,-140.35 1082.97,-146.35 1076.97,-146.35"/>
<text xml:space="preserve" text-anchor="middle" x="1007" y="-124.15" font-family="sans-serif" font-size="12.00">Cultura organizacional</text>
<text xml:space="preserve" text-anchor="middle" x="1007" y="-111.4" font-family="sans-serif" font-size="12.00">(Hofstede)</text>
</g>
<!-- situacion&#45;&#45;relaciones -->
<g id="edge8" class="edge">
<title>situacion&#45;&#45;relaciones</title>
<path fill="none" stroke="#888888" d="M763.2,-413.09C769.07,-398.53 776.57,-379.93 781.97,-366.54"/>
</g>
<!-- regulacion -->
<g id="node16" class="node">
<title>regulacion</title>
<path fill="#ceead6" stroke="black" d="M889.23,-261.85C889.23,-261.85 768.77,-261.85 768.77,-261.85 762.77,-261.85 756.77,-255.85 756.77,-249.85 756.77,-249.85 756.77,-237.85 756.77,-237.85 756.77,-231.85 762.77,-225.85 768.77,-225.85 768.77,-225.85 889.23,-225.85 889.23,-225.85 895.23,-225.85 901.23,-231.85 901.23,-237.85 901.23,-237.85 901.23,-249.85 901.23,-249.85 901.23,-255.85 895.23,-261.85 889.23,-261.85"/>
<text xml:space="preserve" text-anchor="middle" x="829" y="-238.82" font-family="sans-serif" font-size="12.00">Regulación laboral</text>
</g>
<!-- relaciones&#45;&#45;regulacion -->
<g id="edge9" class="edge">
<title>relaciones&#45;&#45;regulacion</title>
<path fill="none" stroke="#888888" d="M795.79,-329.75C803.14,-310.95 814.81,-281.12 822.18,-262.28"/>
</g>
<!-- nearshoring -->
<g id="node18" class="node">
<title>nearshoring</title>
<path fill="#ceead6" stroke="black" d="M726.6,-261.85C726.6,-261.85 641.4,-261.85 641.4,-261.85 635.4,-261.85 629.4,-255.85 629.4,-249.85 629.4,-249.85 629.4,-237.85 629.4,-237.85 629.4,-231.85 635.4,-225.85 641.4,-225.85 641.4,-225.85 726.6,-225.85 726.6,-225.85 732.6,-225.85 738.6,-231.85 738.6,-237.85 738.6,-237.85 738.6,-249.85 738.6,-249.85 738.6,-255.85 732.6,-261.85 726.6,-261.85"/>
<text xml:space="preserve" text-anchor="middle" x="684" y="-238.82" font-family="sans-serif" font-size="12.00">Nearshoring</text>
</g>
<!-- relaciones&#45;&#45;nearshoring -->
<g id="edge11" class="edge">
<title>relaciones&#45;&#45;nearshoring</title>
<path fill="none" stroke="#888888" d="M771.19,-329.75C751.88,-310.95 721.24,-281.12 701.9,-262.28"/>
</g>
<!-- regulacion&#45;&#45;cultura -->
<g id="edge26" class="edge">
<title>regulacion&#45;&#45;cultura</title>
<path fill="none" stroke="#888888" stroke-dasharray="5,2" d="M854.88,-225.54C886.03,-204.71 938.42,-169.67 972.85,-146.64"/>
<text xml:space="preserve" text-anchor="middle" x="934.79" y="-198.35" font-family="sans-serif" font-size="10.00">dimensión</text>
<text xml:space="preserve" text-anchor="middle" x="934.79" y="-187.1" font-family="sans-serif" font-size="10.00">cultural</text>
</g>
<!-- arbitrage -->
<g id="node17" class="node">
<title>arbitrage</title>
<path fill="#ceead6" stroke="black" d="M879.1,-140.8C879.1,-140.8 778.9,-140.8 778.9,-140.8 772.9,-140.8 766.9,-134.8 766.9,-128.8 766.9,-128.8 766.9,-116.8 766.9,-116.8 766.9,-110.8 772.9,-104.8 778.9,-104.8 778.9,-104.8 879.1,-104.8 879.1,-104.8 885.1,-104.8 891.1,-110.8 891.1,-116.8 891.1,-116.8 891.1,-128.8 891.1,-128.8 891.1,-134.8 885.1,-140.8 879.1,-140.8"/>
<text xml:space="preserve" text-anchor="middle" x="829" y="-117.78" font-family="sans-serif" font-size="12.00">Labor arbitrage</text>
</g>
<!-- regulacion&#45;&#45;arbitrage -->
<g id="edge10" class="edge">
<title>regulacion&#45;&#45;arbitrage</title>
<path fill="none" stroke="#888888" d="M829,-225.54C829,-202.97 829,-163.71 829,-141.13"/>
</g>
<!-- nearshoring&#45;&#45;aldea -->
<g id="edge25" class="edge">
<title>nearshoring&#45;&#45;aldea</title>
<path fill="none" stroke="#888888" stroke-dasharray="5,2" d="M681.36,-225.4C677.63,-193.46 675.01,-125.75 713,-91.25 753.22,-54.73 1120.46,-40.56 1262.38,-36.42"/>
<text xml:space="preserve" text-anchor="middle" x="735.5" y="-124.55" font-family="sans-serif" font-size="10.00">geografía</text>
<text xml:space="preserve" text-anchor="middle" x="735.5" y="-113.3" font-family="sans-serif" font-size="10.00">del trabajo</text>
</g>
<!-- beneficios -->
<g id="node19" class="node">
<title>beneficios</title>
<path fill="#e9d2fd" stroke="black" d="M317.73,-261.85C317.73,-261.85 242.28,-261.85 242.28,-261.85 236.28,-261.85 230.28,-255.85 230.28,-249.85 230.28,-249.85 230.28,-237.85 230.28,-237.85 230.28,-231.85 236.28,-225.85 242.28,-225.85 242.28,-225.85 317.73,-225.85 317.73,-225.85 323.73,-225.85 329.73,-231.85 329.73,-237.85 329.73,-237.85 329.73,-249.85 329.73,-249.85 329.73,-255.85 323.73,-261.85 317.73,-261.85"/>
<text xml:space="preserve" text-anchor="middle" x="280" y="-238.82" font-family="sans-serif" font-size="12.00">Beneficios</text>
</g>
<!-- oportunidades -->
<g id="node20" class="node">
<title>oportunidades</title>
<path fill="#e9d2fd" stroke="black" d="M328.98,-140.8C328.98,-140.8 231.03,-140.8 231.03,-140.8 225.03,-140.8 219.03,-134.8 219.03,-128.8 219.03,-128.8 219.03,-116.8 219.03,-116.8 219.03,-110.8 225.03,-104.8 231.03,-104.8 231.03,-104.8 328.98,-104.8 328.98,-104.8 334.98,-104.8 340.98,-110.8 340.98,-116.8 340.98,-116.8 340.98,-128.8 340.98,-128.8 340.98,-134.8 334.98,-140.8 328.98,-140.8"/>
<text xml:space="preserve" text-anchor="middle" x="280" y="-117.78" font-family="sans-serif" font-size="12.00">Oportunidades</text>
</g>
<!-- beneficios&#45;&#45;oportunidades -->
<g id="edge12" class="edge">
<title>beneficios&#45;&#45;oportunidades</title>
<path fill="none" stroke="#888888" d="M280,-225.54C280,-202.97 280,-163.71 280,-141.13"/>
</g>
<!-- riesgo -->
<g id="node21" class="node">
<title>riesgo</title>
<path fill="#e9d2fd" stroke="black" d="M428.73,-140.8C428.73,-140.8 371.27,-140.8 371.27,-140.8 365.27,-140.8 359.27,-134.8 359.27,-128.8 359.27,-128.8 359.27,-116.8 359.27,-116.8 359.27,-110.8 365.27,-104.8 371.27,-104.8 371.27,-104.8 428.73,-104.8 428.73,-104.8 434.73,-104.8 440.73,-110.8 440.73,-116.8 440.73,-116.8 440.73,-128.8 440.73,-128.8 440.73,-134.8 434.73,-140.8 428.73,-140.8"/>
<text xml:space="preserve" text-anchor="middle" x="400" y="-117.78" font-family="sans-serif" font-size="12.00">Riesgo</text>
</g>
<!-- riesgo&#45;&#45;chokepoints -->
<g id="edge28" class="edge">
<title>riesgo&#45;&#45;chokepoints</title>
<path fill="none" stroke="#888888" stroke-dasharray="5,2" d="M422.73,-104.57C430.9,-99.31 440.46,-94.15 450,-91.25 648.32,-30.93 1177,-82.76 1382,-52 1385.11,-51.53 1388.3,-50.97 1391.49,-50.35"/>
<text xml:space="preserve" text-anchor="middle" x="597.51" y="-71.75" font-family="sans-serif" font-size="10.00">vulnerabilidad</text>
</g>
<!-- inclusion -->
<g id="node22" class="node">
<title>inclusion</title>
<path fill="#e9d2fd" stroke="black" d="M593.35,-140.8C593.35,-140.8 470.65,-140.8 470.65,-140.8 464.65,-140.8 458.65,-134.8 458.65,-128.8 458.65,-128.8 458.65,-116.8 458.65,-116.8 458.65,-110.8 464.65,-104.8 470.65,-104.8 470.65,-104.8 593.35,-104.8 593.35,-104.8 599.35,-104.8 605.35,-110.8 605.35,-116.8 605.35,-116.8 605.35,-128.8 605.35,-128.8 605.35,-134.8 599.35,-140.8 593.35,-140.8"/>
<text xml:space="preserve" text-anchor="middle" x="532" y="-117.78" font-family="sans-serif" font-size="12.00">Inclusión financiera</text>
</g>
<!-- finanzas&#45;&#45;oportunidades -->
<!-- finanzas&#45;&#45;riesgo -->
<g id="edge14" class="edge">
<title>finanzas&#45;&#45;riesgo</title>
<path fill="none" stroke="#888888" d="M400,-225.54C400,-202.97 400,-163.71 400,-141.13"/>
</g>
<!-- finanzas&#45;&#45;inclusion -->
<g id="edge13" class="edge">
<title>finanzas&#45;&#45;inclusion</title>
<path fill="none" stroke="#888888" d="M419.19,-225.54C444.22,-202.97 487.75,-163.71 512.78,-141.13"/>
</g>
</g>
</svg>
