<?xml version="1.0" encoding="UTF-8" standalone="no"?>
<!DOCTYPE svg PUBLIC "-//W3C//DTD SVG 1.1//EN"
 "http://www.w3.org/Graphics/SVG/1.1/DTD/svg11.dtd">
<!-- Generated by graphviz version 14.0.5 (20251129.0259)
 -->
<!-- Title: sesion01 Pages: 1 -->
<svg width="2799pt" height="1243pt"
 viewBox="0.00 0.00 2799.00 1243.00" xmlns="http://www.w3.org/2000/svg" xmlns:xlink="http://www.w3.org/1999/xlink">
<g id="graph0" class="graph" transform="scale(1 1) rotate(0) translate(36 1214.43)">
<title>sesion01</title>
<polygon fill="#fafafa" stroke="none" points="-36,28.8 -36,-1214.43 2763.07,-1214.43 2763.07,28.8 -36,28.8"/>
<text xml:space="preserve" text-anchor="start" x="1229.66" y="-1167.43" font-family="Helvetica Neue" font-weight="bold" font-size="16.00">Sesión 1 — Conceptos emergentes</text>
<text xml:space="preserve" text-anchor="start" x="1204.16" y="-1151.43" font-family="Helvetica Neue" font-size="16.00">Globalización y Empleo 2026&#45;2 · FCA UNAM</text>
<g id="clust1" class="cluster">
<title>cluster_tech</title>
<path fill="#e8f0fe" stroke="#7baaf7" stroke-width="1.5" d="M784.07,-259.97C784.07,-259.97 974.07,-259.97 974.07,-259.97 980.07,-259.97 986.07,-265.97 986.07,-271.97 986.07,-271.97 986.07,-809.79 986.07,-809.79 986.07,-815.79 980.07,-821.79 974.07,-821.79 974.07,-821.79 784.07,-821.79 784.07,-821.79 778.07,-821.79 772.07,-815.79 772.07,-809.79 772.07,-809.79 772.07,-271.97 772.07,-271.97 772.07,-265.97 778.07,-259.97 784.07,-259.97"/>
<text xml:space="preserve" text-anchor="start" x="780.07" y="-807.39" font-family="Helvetica Neue" font-weight="bold" font-size="12.00" fill="#1a56c4">Tecnología y economía digital</text>
</g>
<g id="clust2" class="cluster">
<title>cluster_sistema</title>
<path fill="#fef9e7" stroke="#f9ab00" stroke-width="1.5" d="M62.07,-546C62.07,-546 408.07,-546 408.07,-546 414.07,-546 420.07,-552 420.07,-558 420.07,-558 420.07,-1006.58 420.07,-1006.58 420.07,-1012.58 414.07,-1018.58 408.07,-1018.58 408.07,-1018.58 62.07,-1018.58 62.07,-1018.58 56.07,-1018.58 50.07,-1012.58 50.07,-1006.58 50.07,-1006.58 50.07,-558 50.07,-558 50.07,-552 56.07,-546 62.07,-546"/>
<text xml:space="preserve" text-anchor="start" x="58.07" y="-1004.18" font-family="Helvetica Neue" font-weight="bold" font-size="12.00" fill="#b8860b">Sistema internacional</text>
</g>
<g id="clust3" class="cluster">
<title>cluster_marcos</title>
<path fill="#fce8e6" stroke="#f28b82" stroke-width="1.5" d="M1103.07,-693.51C1103.07,-693.51 1823.07,-693.51 1823.07,-693.51 1829.07,-693.51 1835.07,-699.51 1835.07,-705.51 1835.07,-705.51 1835.07,-1028.72 1835.07,-1028.72 1835.07,-1034.72 1829.07,-1040.72 1823.07,-1040.72 1823.07,-1040.72 1103.07,-1040.72 1103.07,-1040.72 1097.07,-1040.72 1091.07,-1034.72 1091.07,-1028.72 1091.07,-1028.72 1091.07,-705.51 1091.07,-705.51 1091.07,-699.51 1097.07,-693.51 1103.07,-693.51"/>
<text xml:space="preserve" text-anchor="start" x="1099.07" y="-1026.32" font-family="Helvetica Neue" font-weight="bold" font-size="12.00" fill="#c0392b">Marcos conceptuales</text>
</g>
<g id="clust4" class="cluster">
<title>cluster_trabajo</title>
<path fill="#e6f4ea" stroke="#81c995" stroke-width="1.5" d="M440.07,-131.41C440.07,-131.41 752.07,-131.41 752.07,-131.41 758.07,-131.41 764.07,-137.41 764.07,-143.41 764.07,-143.41 764.07,-809.79 764.07,-809.79 764.07,-815.79 758.07,-821.79 752.07,-821.79 752.07,-821.79 440.07,-821.79 440.07,-821.79 434.07,-821.79 428.07,-815.79 428.07,-809.79 428.07,-809.79 428.07,-143.41 428.07,-143.41 428.07,-137.41 434.07,-131.41 440.07,-131.41"/>
<text xml:space="preserve" text-anchor="start" x="436.07" y="-807.39" font-family="Helvetica Neue" font-weight="bold" font-size="12.00" fill="#1b7a3d">Mundo laboral</text>
</g>
<g id="clust5" class="cluster">
<title>cluster_impactos</title>
<path fill="#f3e8fd" stroke="#c58af9" stroke-width="1.5" d="M1855.07,-125.85C1855.07,-125.85 2157.07,-125.85 2157.07,-125.85 2163.07,-125.85 2169.07,-131.85 2169.07,-137.85 2169.07,-137.85 2169.07,-1002.44 2169.07,-1002.44 2169.07,-1008.44 2163.07,-1014.44 2157.07,-1014.44 2157.07,-1014.44 1855.07,-1014.44 1855.07,-1014.44 1849.07,-1014.44 1843.07,-1008.44 1843.07,-1002.44 1843.07,-1002.44 1843.07,-137.85 1843.07,-137.85 1843.07,-131.85 1849.07,-125.85 1855.07,-125.85"/>
<text xml:space="preserve" text-anchor="start" x="1851.07" y="-1000.04" font-family="Helvetica Neue" font-weight="bold" font-size="12.00" fill="#7b2d8e">Impactos</text>
</g>
<g id="clust6" class="cluster">
<title>cluster_legend</title>
<path fill="#ffffff" stroke="#cccccc" d="M2495.07,-8C2495.07,-8 2707.07,-8 2707.07,-8 2713.07,-8 2719.07,-14 2719.07,-20 2719.07,-20 2719.07,-985.83 2719.07,-985.83 2719.07,-991.83 2713.07,-997.83 2707.07,-997.83 2707.07,-997.83 2495.07,-997.83 2495.07,-997.83 2489.07,-997.83 2483.07,-991.83 2483.07,-985.83 2483.07,-985.83 2483.07,-20 2483.07,-20 2483.07,-14 2489.07,-8 2495.07,-8"/>
<text xml:space="preserve" text-anchor="start" x="2491.07" y="-985.33" font-family="Helvetica Neue" font-weight="bold" font-size="10.00">Leyenda</text>
</g>
<!-- curso -->
<g id="node1" class="node">
<title>curso</title>
<ellipse fill="#1a73e8" stroke="#0d47a1" stroke-width="2.5" cx="701.07" cy="-934.44" rx="89.68" ry="50.4"/>
<text xml:space="preserve" text-anchor="start" x="642.94" y="-936.34" font-family="Helvetica Neue Bold" font-weight="bold" font-size="18.00" fill="white">Globalización</text>
<text xml:space="preserve" text-anchor="start" x="660.94" y="-918.34" font-family="Helvetica Neue Bold" font-weight="bold" font-size="18.00" fill="white">y Empleo</text>
</g>
<!-- automatizacion -->
<g id="node2" class="node">
<title>automatizacion</title>
<path fill="#d2e3fc" stroke="#7baaf7" stroke-width="1.2" d="M918.32,-759.79C918.32,-759.79 817.82,-759.79 817.82,-759.79 811.82,-759.79 805.82,-753.79 805.82,-747.79 805.82,-747.79 805.82,-735.79 805.82,-735.79 805.82,-729.79 811.82,-723.79 817.82,-723.79 817.82,-723.79 918.32,-723.79 918.32,-723.79 924.32,-723.79 930.32,-729.79 930.32,-735.79 930.32,-735.79 930.32,-747.79 930.32,-747.79 930.32,-753.79 924.32,-759.79 918.32,-759.79"/>
<text xml:space="preserve" text-anchor="start" x="823.82" y="-738.89" font-family="Helvetica Neue" font-weight="bold" font-size="12.00">Automatización</text>
</g>
<!-- curso&#45;&gt;automatizacion -->
<g id="edge26" class="edge">
<title>curso&#45;&gt;automatizacion</title>
<path fill="none" stroke="#1a73e8" stroke-width="2" d="M682.19,-884.03C678.26,-864.91 678.67,-844.21 691.82,-829.79 704.78,-815.57 760.39,-829.4 778.07,-821.79 809.77,-808.15 838.2,-778.98 854.27,-760.16"/>
<text xml:space="preserve" text-anchor="start" x="691.82" y="-832.49" font-family="Helvetica Neue" font-size="9.00" fill="#1a56c4">impacto</text>
</g>
<!-- sistema -->
<g id="node7" class="node">
<title>sistema</title>
<path fill="#feefc3" stroke="#f9ab00" stroke-width="1.2" d="M367.19,-759.79C367.19,-759.79 232.94,-759.79 232.94,-759.79 226.94,-759.79 220.94,-753.79 220.94,-747.79 220.94,-747.79 220.94,-735.79 220.94,-735.79 220.94,-729.79 226.94,-723.79 232.94,-723.79 232.94,-723.79 367.19,-723.79 367.19,-723.79 373.19,-723.79 379.19,-729.79 379.19,-735.79 379.19,-735.79 379.19,-747.79 379.19,-747.79 379.19,-753.79 373.19,-759.79 367.19,-759.79"/>
<text xml:space="preserve" text-anchor="start" x="238.94" y="-738.89" font-family="Helvetica Neue" font-weight="bold" font-size="12.00">Sistema internacional</text>
</g>
<!-- curso&#45;&gt;sistema -->
<g id="edge28" class="edge">
<title>curso&#45;&gt;sistema</title>
<path fill="none" stroke="#f9ab00" stroke-width="2" d="M611.46,-925.7C539.64,-915.72 439.24,-892.95 366.82,-841.04 337.65,-820.14 317.3,-782.26 307.25,-760.14"/>
<text xml:space="preserve" text-anchor="start" x="366.82" y="-832.49" font-family="Helvetica Neue" font-size="9.00" fill="#b8860b">contexto</text>
</g>
<!-- sociociber -->
<g id="node13" class="node">
<title>sociociber</title>
<path fill="#fad2cf" stroke="#f28b82" stroke-width="1.2" d="M1451.41,-771.22C1451.41,-771.22 1342.72,-744.64 1342.72,-744.64 1336.89,-743.22 1336.89,-740.37 1342.72,-738.94 1342.72,-738.94 1451.41,-712.36 1451.41,-712.36 1457.24,-710.94 1468.89,-710.94 1474.72,-712.36 1474.72,-712.36 1583.41,-738.94 1583.41,-738.94 1589.24,-740.37 1589.24,-743.22 1583.41,-744.64 1583.41,-744.64 1474.72,-771.22 1474.72,-771.22 1468.89,-772.65 1457.24,-772.65 1451.41,-771.22"/>
<text xml:space="preserve" text-anchor="start" x="1415.07" y="-738.89" font-family="Helvetica Neue" font-weight="bold" font-size="12.00">Sociocibernética</text>
</g>
<!-- curso&#45;&gt;sociociber -->
<g id="edge29" class="edge">
<title>curso&#45;&gt;sociociber</title>
<path fill="none" stroke="#ea4335" stroke-width="2" d="M748.24,-890.65C776.25,-868.05 813.72,-842.44 852.07,-829.79 899.37,-814.19 1026.61,-827.68 1076.07,-821.79 1191.31,-808.07 1323.33,-777.96 1399.57,-759.13"/>
<text xml:space="preserve" text-anchor="start" x="852.07" y="-832.49" font-family="Helvetica Neue" font-size="9.00" fill="#c0392b">enfoque teórico</text>
</g>
<!-- situacion -->
<g id="node17" class="node">
<title>situacion</title>
<path fill="#ceead6" stroke="#81c995" stroke-width="1.2" d="M559.44,-607.77C559.44,-607.77 474.69,-607.77 474.69,-607.77 468.69,-607.77 462.69,-601.77 462.69,-595.77 462.69,-595.77 462.69,-578.49 462.69,-578.49 462.69,-572.49 468.69,-566.49 474.69,-566.49 474.69,-566.49 559.44,-566.49 559.44,-566.49 565.44,-566.49 571.44,-572.49 571.44,-578.49 571.44,-578.49 571.44,-595.77 571.44,-595.77 571.44,-601.77 565.44,-607.77 559.44,-607.77"/>
<text xml:space="preserve" text-anchor="start" x="480.69" y="-588.73" font-family="Helvetica Neue" font-weight="bold" font-size="12.00">Situación del</text>
<text xml:space="preserve" text-anchor="start" x="496.07" y="-576.73" font-family="Helvetica Neue" font-weight="bold" font-size="12.00">empleo</text>
</g>
<!-- curso&#45;&gt;situacion -->
<g id="edge27" class="edge">
<title>curso&#45;&gt;situacion</title>
<path fill="none" stroke="#34a853" stroke-width="2" d="M641.35,-895.68C615.67,-876.53 587.54,-851.1 569.82,-821.79 527.31,-751.52 518.99,-650.6 517.41,-608.15"/>
<text xml:space="preserve" text-anchor="start" x="569.82" y="-738.87" font-family="Helvetica Neue" font-size="9.00" fill="#1b7a3d">consecuencias</text>
</g>
<!-- finanzas -->
<g id="node25" class="node">
<title>finanzas</title>
<path fill="#e9d2fd" stroke="#c58af9" stroke-width="1.2" d="M1937.82,-311.97C1937.82,-311.97 1876.32,-311.97 1876.32,-311.97 1870.32,-311.97 1864.32,-305.97 1864.32,-299.97 1864.32,-299.97 1864.32,-287.97 1864.32,-287.97 1864.32,-281.97 1870.32,-275.97 1876.32,-275.97 1876.32,-275.97 1937.82,-275.97 1937.82,-275.97 1943.82,-275.97 1949.82,-281.97 1949.82,-287.97 1949.82,-287.97 1949.82,-299.97 1949.82,-299.97 1949.82,-305.97 1943.82,-311.97 1937.82,-311.97"/>
<text xml:space="preserve" text-anchor="start" x="1882.32" y="-291.07" font-family="Helvetica Neue" font-weight="bold" font-size="12.00">Finanzas</text>
</g>
<!-- curso&#45;&gt;finanzas -->
<g id="edge30" class="edge">
<title>curso&#45;&gt;finanzas</title>
<path fill="none" stroke="#c58af9" stroke-width="2" d="M736.25,-887.13C755.47,-865.58 781.22,-842.04 810.07,-829.79 848.56,-813.46 962,-842.96 998.07,-821.79 1055.82,-787.91 1035.69,-746.16 1077.07,-693.51 1153.2,-596.65 1166.97,-560.78 1272.07,-496.5 1473.35,-373.39 1757.07,-318.51 1864.03,-301.3"/>
<text xml:space="preserve" text-anchor="start" x="1201.42" y="-589.83" font-family="Helvetica Neue" font-size="9.00" fill="#7b2d8e">dimensión</text>
<text xml:space="preserve" text-anchor="start" x="1203.3" y="-578.58" font-family="Helvetica Neue" font-size="9.00" fill="#7b2d8e">financiera</text>
</g>
<!-- ia -->
<g id="node3" class="node">
<title>ia</title>
<path fill="#d2e3fc" stroke="#cccccc" stroke-width="0.8" d="M833.57,-605.13C833.57,-605.13 800.57,-605.13 800.57,-605.13 794.57,-605.13 788.57,-599.13 788.57,-593.13 788.57,-593.13 788.57,-581.13 788.57,-581.13 788.57,-575.13 794.57,-569.13 800.57,-569.13 800.57,-569.13 833.57,-569.13 833.57,-569.13 839.57,-569.13 845.57,-575.13 845.57,-581.13 845.57,-581.13 845.57,-593.13 845.57,-593.13 845.57,-599.13 839.57,-605.13 833.57,-605.13"/>
<text xml:space="preserve" text-anchor="start" x="806.57" y="-583.43" font-family="Helvetica Neue" font-size="11.00">«IA»</text>
</g>
<!-- automatizacion&#45;&gt;ia -->
<g id="edge1" class="edge">
<title>automatizacion&#45;&gt;ia</title>
<path fill="none" stroke="#7baaf7" d="M867.27,-723.31C866.04,-705.71 862.92,-677.98 855.07,-655.26 848.85,-637.29 837.84,-618.6 829.26,-605.52"/>
</g>
<!-- digital -->
<g id="node4" class="node">
<title>digital</title>
<path fill="#d2e3fc" stroke="#cccccc" stroke-width="0.8" d="M958.07,-605.13C958.07,-605.13 916.07,-605.13 916.07,-605.13 910.07,-605.13 904.07,-599.13 904.07,-593.13 904.07,-593.13 904.07,-581.13 904.07,-581.13 904.07,-575.13 910.07,-569.13 916.07,-569.13 916.07,-569.13 958.07,-569.13 958.07,-569.13 964.07,-569.13 970.07,-575.13 970.07,-581.13 970.07,-581.13 970.07,-593.13 970.07,-593.13 970.07,-599.13 964.07,-605.13 958.07,-605.13"/>
<text xml:space="preserve" text-anchor="start" x="922.07" y="-583.43" font-family="Helvetica Neue" font-size="11.00">Digital</text>
</g>
<!-- automatizacion&#45;&gt;digital -->
<g id="edge2" class="edge">
<title>automatizacion&#45;&gt;digital</title>
<path fill="none" stroke="#7baaf7" d="M875.98,-723.28C889.29,-693.83 916,-634.75 929.24,-605.44"/>
</g>
<!-- automatizacion&#45;&gt;situacion -->
<g id="edge31" class="edge">
<title>automatizacion&#45;&gt;situacion</title>
<path fill="none" stroke="#7baaf7" stroke-width="1.2" stroke-dasharray="5,2" d="M836.8,-723.38C819.66,-714.09 797.93,-702.71 778.07,-693.51 707.9,-661.02 624.74,-628.43 571.47,-608.28"/>
<text xml:space="preserve" text-anchor="start" x="714.52" y="-657.96" font-family="Helvetica Neue" font-size="9.00" fill="#5a8fd4">transforma</text>
</g>
<!-- fintech -->
<g id="node5" class="node">
<title>fintech</title>
<path fill="#d2e3fc" stroke="#cccccc" stroke-width="0.8" d="M958.07,-449.36C958.07,-449.36 910.07,-449.36 910.07,-449.36 904.07,-449.36 898.07,-443.36 898.07,-437.36 898.07,-437.36 898.07,-425.36 898.07,-425.36 898.07,-419.36 904.07,-413.36 910.07,-413.36 910.07,-413.36 958.07,-413.36 958.07,-413.36 964.07,-413.36 970.07,-419.36 970.07,-425.36 970.07,-425.36 970.07,-437.36 970.07,-437.36 970.07,-443.36 964.07,-449.36 958.07,-449.36"/>
<text xml:space="preserve" text-anchor="start" x="916.07" y="-427.66" font-family="Helvetica Neue" font-size="11.00">Fintech</text>
</g>
<!-- digital&#45;&gt;fintech -->
<g id="edge4" class="edge">
<title>digital&#45;&gt;fintech</title>
<path fill="none" stroke="#7baaf7" d="M936.73,-568.79C936.15,-539.1 934.97,-478.89 934.4,-449.4"/>
</g>
<!-- startup -->
<g id="node6" class="node">
<title>startup</title>
<path fill="#d2e3fc" stroke="#cccccc" stroke-width="0.8" d="M957.82,-311.97C957.82,-311.97 908.32,-311.97 908.32,-311.97 902.32,-311.97 896.32,-305.97 896.32,-299.97 896.32,-299.97 896.32,-287.97 896.32,-287.97 896.32,-281.97 902.32,-275.97 908.32,-275.97 908.32,-275.97 957.82,-275.97 957.82,-275.97 963.82,-275.97 969.82,-281.97 969.82,-287.97 969.82,-287.97 969.82,-299.97 969.82,-299.97 969.82,-305.97 963.82,-311.97 957.82,-311.97"/>
<text xml:space="preserve" text-anchor="start" x="914.32" y="-290.27" font-family="Helvetica Neue" font-size="11.00">Startup</text>
</g>
<!-- fintech&#45;&gt;startup -->
<g id="edge3" class="edge">
<title>fintech&#45;&gt;startup</title>
<path fill="none" stroke="#7baaf7" d="M933.94,-413.21C933.75,-387.17 933.38,-337.94 933.19,-311.98"/>
</g>
<!-- fintech&#45;&gt;finanzas -->
<g id="edge32" class="edge">
<title>fintech&#45;&gt;finanzas</title>
<path fill="none" stroke="#7baaf7" stroke-width="1.2" stroke-dasharray="5,2" d="M947.19,-412.99C962,-394.9 987.88,-367.47 1017.32,-354.97 1095.69,-321.68 1696.46,-301.3 1863.88,-296.22"/>
<text xml:space="preserve" text-anchor="start" x="1017.32" y="-357.67" font-family="Helvetica Neue" font-size="9.00" fill="#5a8fd4">sector</text>
</g>
<!-- orden -->
<g id="node8" class="node">
<title>orden</title>
<path fill="#feefc3" stroke="#cccccc" stroke-width="0.8" d="M173.69,-605.13C173.69,-605.13 78.44,-605.13 78.44,-605.13 72.44,-605.13 66.44,-599.13 66.44,-593.13 66.44,-593.13 66.44,-581.13 66.44,-581.13 66.44,-575.13 72.44,-569.13 78.44,-569.13 78.44,-569.13 173.69,-569.13 173.69,-569.13 179.69,-569.13 185.69,-575.13 185.69,-581.13 185.69,-581.13 185.69,-593.13 185.69,-593.13 185.69,-599.13 179.69,-605.13 173.69,-605.13"/>
<text xml:space="preserve" text-anchor="start" x="84.44" y="-583.43" font-family="Helvetica Neue" font-size="11.00">«Orden mundial»</text>
</g>
<!-- sistema&#45;&gt;orden -->
<g id="edge5" class="edge">
<title>sistema&#45;&gt;orden</title>
<path fill="none" stroke="#f9ab00" d="M280.11,-723.28C246.54,-693.83 179.2,-634.75 145.79,-605.44"/>
</g>
<!-- chokepoints -->
<g id="node9" class="node">
<title>chokepoints</title>
<path fill="#feefc3" stroke="#cccccc" stroke-width="0.8" d="M394.12,-593.5C394.12,-593.5 374.35,-605.89 374.35,-605.89 369.26,-609.08 358.18,-612.26 352.18,-612.26 352.18,-612.26 295.96,-612.26 295.96,-612.26 289.96,-612.26 278.87,-609.08 273.79,-605.89 273.79,-605.89 254.01,-593.5 254.01,-593.5 248.93,-590.32 248.93,-583.95 254.01,-580.76 254.01,-580.76 273.79,-568.37 273.79,-568.37 278.87,-565.19 289.96,-562 295.96,-562 295.96,-562 352.18,-562 352.18,-562 358.18,-562 369.26,-565.19 374.35,-568.37 374.35,-568.37 394.12,-580.76 394.12,-580.76 399.2,-583.95 399.2,-590.32 394.12,-593.5"/>
<text xml:space="preserve" text-anchor="start" x="292.94" y="-583.43" font-family="Helvetica Neue" font-size="11.00">Chokepoints</text>
</g>
<!-- sistema&#45;&gt;chokepoints -->
<g id="edge6" class="edge">
<title>sistema&#45;&gt;chokepoints</title>
<path fill="none" stroke="#f9ab00" d="M302.82,-723.28C307.1,-696.03 315.38,-643.39 320.24,-612.46"/>
</g>
<!-- relaciones -->
<g id="node18" class="node">
<title>relaciones</title>
<path fill="#ceead6" stroke="#cccccc" stroke-width="0.8" d="M568.32,-449.36C568.32,-449.36 455.82,-449.36 455.82,-449.36 449.82,-449.36 443.82,-443.36 443.82,-437.36 443.82,-437.36 443.82,-425.36 443.82,-425.36 443.82,-419.36 449.82,-413.36 455.82,-413.36 455.82,-413.36 568.32,-413.36 568.32,-413.36 574.32,-413.36 580.32,-419.36 580.32,-425.36 580.32,-425.36 580.32,-437.36 580.32,-437.36 580.32,-443.36 574.32,-449.36 568.32,-449.36"/>
<text xml:space="preserve" text-anchor="start" x="461.82" y="-427.66" font-family="Helvetica Neue" font-size="11.00">Relaciones laborales</text>
</g>
<!-- sistema&#45;&gt;relaciones -->
<g id="edge33" class="edge">
<title>sistema&#45;&gt;relaciones</title>
<path fill="none" stroke="#f9ab00" stroke-width="1.2" stroke-dasharray="5,2" d="M260.06,-723.25C181.42,-688.74 14.14,-615.07 12.32,-612.26 -3.71,-587.56 -4.39,-570.25 12.32,-546 60.83,-475.56 318.32,-446.83 443.56,-436.89"/>
<text xml:space="preserve" text-anchor="start" x="12.32" y="-584.21" font-family="Helvetica Neue" font-size="9.00" fill="#b8860b">marco</text>
</g>
<!-- interconexion -->
<g id="node10" class="node">
<title>interconexion</title>
<path fill="#feefc3" stroke="#cccccc" stroke-width="0.8" d="M156.44,-952.44C156.44,-952.44 77.69,-952.44 77.69,-952.44 71.69,-952.44 65.69,-946.44 65.69,-940.44 65.69,-940.44 65.69,-928.44 65.69,-928.44 65.69,-922.44 71.69,-916.44 77.69,-916.44 77.69,-916.44 156.44,-916.44 156.44,-916.44 162.44,-916.44 168.44,-922.44 168.44,-928.44 168.44,-928.44 168.44,-940.44 168.44,-940.44 168.44,-946.44 162.44,-952.44 156.44,-952.44"/>
<text xml:space="preserve" text-anchor="start" x="83.69" y="-930.74" font-family="Helvetica Neue" font-size="11.00">Interconexión</text>
</g>
<!-- aldea -->
<g id="node11" class="node">
<title>aldea</title>
<path fill="#feefc3" stroke="#cccccc" stroke-width="0.8" d="M150.44,-759.79C150.44,-759.79 77.69,-759.79 77.69,-759.79 71.69,-759.79 65.69,-753.79 65.69,-747.79 65.69,-747.79 65.69,-735.79 65.69,-735.79 65.69,-729.79 71.69,-723.79 77.69,-723.79 77.69,-723.79 150.44,-723.79 150.44,-723.79 156.44,-723.79 162.44,-729.79 162.44,-735.79 162.44,-735.79 162.44,-747.79 162.44,-747.79 162.44,-753.79 156.44,-759.79 150.44,-759.79"/>
<text xml:space="preserve" text-anchor="start" x="83.69" y="-738.09" font-family="Helvetica Neue" font-size="11.00">Aldea global</text>
</g>
<!-- interconexion&#45;&gt;aldea -->
<g id="edge7" class="edge">
<title>interconexion&#45;&gt;aldea</title>
<path fill="none" stroke="#f9ab00" d="M116.8,-916.19C116.23,-879.98 114.91,-796.44 114.34,-760.15"/>
</g>
<!-- nortesur -->
<g id="node12" class="node">
<title>nortesur</title>
<path fill="#feefc3" stroke="#cccccc" stroke-width="0.8" d="M337.19,-956.58C337.19,-956.58 262.94,-956.58 262.94,-956.58 256.94,-956.58 250.94,-950.58 250.94,-944.58 250.94,-944.58 250.94,-924.3 250.94,-924.3 250.94,-918.3 256.94,-912.3 262.94,-912.3 262.94,-912.3 337.19,-912.3 337.19,-912.3 343.19,-912.3 349.19,-918.3 349.19,-924.3 349.19,-924.3 349.19,-944.58 349.19,-944.58 349.19,-950.58 343.19,-956.58 337.19,-956.58"/>
<text xml:space="preserve" text-anchor="start" x="268.94" y="-937.49" font-family="Helvetica Neue" font-size="11.00">Norte Global</text>
<text xml:space="preserve" text-anchor="start" x="270.07" y="-923.99" font-family="Helvetica Neue" font-size="11.00">y Sur Global</text>
</g>
<!-- nortesur&#45;&gt;sistema -->
<g id="edge8" class="edge">
<title>nortesur&#45;&gt;sistema</title>
<path fill="none" stroke="#f9ab00" d="M300.07,-911.94C300.07,-873.87 300.07,-795.3 300.07,-760.29"/>
</g>
<!-- nearshoring -->
<g id="node21" class="node">
<title>nearshoring</title>
<path fill="#ceead6" stroke="#cccccc" stroke-width="0.8" d="M713.69,-311.97C713.69,-311.97 642.44,-311.97 642.44,-311.97 636.44,-311.97 630.44,-305.97 630.44,-299.97 630.44,-299.97 630.44,-287.97 630.44,-287.97 630.44,-281.97 636.44,-275.97 642.44,-275.97 642.44,-275.97 713.69,-275.97 713.69,-275.97 719.69,-275.97 725.69,-281.97 725.69,-287.97 725.69,-287.97 725.69,-299.97 725.69,-299.97 725.69,-305.97 719.69,-311.97 713.69,-311.97"/>
<text xml:space="preserve" text-anchor="start" x="648.44" y="-290.27" font-family="Helvetica Neue" font-size="11.00">Nearshoring</text>
</g>
<!-- nortesur&#45;&gt;nearshoring -->
<g id="edge40" class="edge">
<title>nortesur&#45;&gt;nearshoring</title>
<path fill="none" stroke="#f9ab00" stroke-width="1.2" stroke-dasharray="5,2" d="M349.56,-923.64C405.74,-912.77 500.2,-895.3 582.07,-884.04 771.9,-857.94 821.11,-866.25 1011.07,-841.04 1041.43,-837.01 1048.55,-832.41 1079.07,-829.79 1094.32,-828.49 2169.67,-832.01 2181.07,-821.79 2336.51,-682.37 2379.55,-504.76 2234.07,-354.97 2176.91,-296.12 839.52,-321.73 758.07,-311.97 747.63,-310.72 736.55,-308.77 726.06,-306.64"/>
<text xml:space="preserve" text-anchor="start" x="2323.25" y="-584.21" font-family="Helvetica Neue" font-size="9.00" fill="#b8860b">asimetría</text>
</g>
<!-- sociociber&#45;&gt;aldea -->
<g id="edge37" class="edge">
<title>sociociber&#45;&gt;aldea</title>
<path fill="none" stroke="#f28b82" stroke-width="1.2" stroke-dasharray="5,2" d="M1392.94,-757.44C1302.64,-776.71 1140.61,-808.34 1000.07,-820.15 910.6,-827.67 274.97,-854.61 192.07,-820.15 162.82,-808 138.87,-778.96 125.54,-759.85"/>
<text xml:space="preserve" text-anchor="start" x="416.19" y="-832.49" font-family="Helvetica Neue" font-size="9.00" fill="#c0392b">red global</text>
</g>
<!-- cultura -->
<g id="node14" class="node">
<title>cultura</title>
<path fill="#fad2cf" stroke="#cccccc" stroke-width="0.8" d="M1240.59,-975.21C1240.59,-975.21 1118.79,-937.95 1118.79,-937.95 1113.05,-936.2 1113.05,-932.69 1118.79,-930.93 1118.79,-930.93 1240.59,-893.67 1240.59,-893.67 1246.33,-891.92 1257.8,-891.92 1263.54,-893.67 1263.54,-893.67 1385.34,-930.93 1385.34,-930.93 1391.08,-932.69 1391.08,-936.2 1385.34,-937.95 1385.34,-937.95 1263.54,-975.21 1263.54,-975.21 1257.8,-976.97 1246.33,-976.97 1240.59,-975.21"/>
<text xml:space="preserve" text-anchor="start" x="1197.69" y="-937.49" font-family="Helvetica Neue" font-size="11.00">Cultura organizacional</text>
<text xml:space="preserve" text-anchor="start" x="1226.57" y="-923.99" font-family="Helvetica Neue" font-size="11.00">(Hofstede)</text>
</g>
<!-- guystanding -->
<g id="node15" class="node">
<title>guystanding</title>
<path fill="#fad2cf" stroke="#cccccc" stroke-width="0.8" d="M1704.57,-961.78C1704.57,-961.78 1624.81,-937.89 1624.81,-937.89 1619.06,-936.17 1619.06,-932.72 1624.81,-931 1624.81,-931 1704.57,-907.11 1704.57,-907.11 1710.32,-905.39 1721.81,-905.39 1727.56,-907.11 1727.56,-907.11 1807.32,-931 1807.32,-931 1813.07,-932.72 1813.07,-936.17 1807.32,-937.89 1807.32,-937.89 1727.56,-961.78 1727.56,-961.78 1721.81,-963.5 1710.32,-963.5 1704.57,-961.78"/>
<text xml:space="preserve" text-anchor="start" x="1682.69" y="-930.74" font-family="Helvetica Neue" font-size="11.00">Guy Standing</text>
</g>
<!-- guystanding&#45;&gt;sociociber -->
<g id="edge9" class="edge">
<title>guystanding&#45;&gt;sociociber</title>
<path fill="none" stroke="#f28b82" d="M1687.54,-911.94C1639.85,-876.01 1544.31,-804.01 1494.66,-766.6"/>
</g>
<!-- precariado -->
<g id="node22" class="node">
<title>precariado</title>
<path fill="#ceead6" stroke="#cccccc" stroke-width="0.8" d="M736.07,-759.79C736.07,-759.79 670.07,-759.79 670.07,-759.79 664.07,-759.79 658.07,-753.79 658.07,-747.79 658.07,-747.79 658.07,-735.79 658.07,-735.79 658.07,-729.79 664.07,-723.79 670.07,-723.79 670.07,-723.79 736.07,-723.79 736.07,-723.79 742.07,-723.79 748.07,-729.79 748.07,-735.79 748.07,-735.79 748.07,-747.79 748.07,-747.79 748.07,-753.79 742.07,-759.79 736.07,-759.79"/>
<text xml:space="preserve" text-anchor="start" x="676.07" y="-738.09" font-family="Helvetica Neue" font-size="11.00">Precariado</text>
</g>
<!-- guystanding&#45;&gt;precariado -->
<g id="edge38" class="edge">
<title>guystanding&#45;&gt;precariado</title>
<path fill="none" stroke="#f28b82" stroke-width="1.2" stroke-dasharray="5,2" d="M1676.22,-915.23C1650.47,-904.3 1615.94,-891.18 1584.07,-884.04 1297.28,-819.88 1218.33,-848.88 925.07,-829.79 906.53,-828.59 774.32,-830.79 758.07,-821.79 733.64,-808.29 717.68,-778.78 709.53,-759.9"/>
<text xml:space="preserve" text-anchor="start" x="1279.14" y="-832.49" font-family="Helvetica Neue" font-size="9.00" fill="#c0392b">teoría</text>
</g>
<!-- policymemo -->
<g id="node16" class="node">
<title>policymemo</title>
<polygon fill="#fad2cf" stroke="#cccccc" stroke-width="0.8" points="1548.94,-952.44 1455.19,-952.44 1455.19,-916.44 1554.94,-916.44 1554.94,-946.44 1548.94,-952.44"/>
<polyline fill="none" stroke="#cccccc" stroke-width="0.8" points="1548.94,-952.44 1548.94,-946.44"/>
<polyline fill="none" stroke="#cccccc" stroke-width="0.8" points="1554.94,-946.44 1548.94,-946.44"/>
<text xml:space="preserve" text-anchor="start" x="1473.19" y="-930.74" font-family="Helvetica Neue" font-size="11.00">Policy Memo</text>
</g>
<!-- policymemo&#45;&gt;curso -->
<g id="edge41" class="edge">
<title>policymemo&#45;&gt;curso</title>
<path fill="none" stroke="#f28b82" stroke-width="1.2" stroke-dasharray="5,2" d="M1496.41,-952.79C1484.34,-975.92 1460.07,-1014.6 1426.07,-1030.68 1355.95,-1063.83 1154.01,-1040.37 1077.07,-1030.68 972.11,-1017.46 854.47,-984.26 779.18,-960.56"/>
<text xml:space="preserve" text-anchor="start" x="1098.44" y="-1051.42" font-family="Helvetica Neue" font-size="9.00" fill="#c0392b">herramienta</text>
</g>
<!-- situacion&#45;&gt;relaciones -->
<g id="edge10" class="edge">
<title>situacion&#45;&gt;relaciones</title>
<path fill="none" stroke="#81c995" d="M516.41,-566.03C515.42,-535.58 513.56,-478.29 512.63,-449.62"/>
</g>
<!-- regulacion -->
<g id="node19" class="node">
<title>regulacion</title>
<path fill="#ceead6" stroke="#cccccc" stroke-width="0.8" d="M560.07,-311.97C560.07,-311.97 458.07,-311.97 458.07,-311.97 452.07,-311.97 446.07,-305.97 446.07,-299.97 446.07,-299.97 446.07,-287.97 446.07,-287.97 446.07,-281.97 452.07,-275.97 458.07,-275.97 458.07,-275.97 560.07,-275.97 560.07,-275.97 566.07,-275.97 572.07,-281.97 572.07,-287.97 572.07,-287.97 572.07,-299.97 572.07,-299.97 572.07,-305.97 566.07,-311.97 560.07,-311.97"/>
<text xml:space="preserve" text-anchor="start" x="464.07" y="-290.27" font-family="Helvetica Neue" font-size="11.00">Regulación laboral</text>
</g>
<!-- relaciones&#45;&gt;regulacion -->
<g id="edge11" class="edge">
<title>relaciones&#45;&gt;regulacion</title>
<path fill="none" stroke="#81c995" d="M511.69,-413.21C511.11,-387.17 510.02,-337.94 509.44,-311.98"/>
</g>
<!-- relaciones&#45;&gt;nearshoring -->
<g id="edge13" class="edge">
<title>relaciones&#45;&gt;nearshoring</title>
<path fill="none" stroke="#81c995" d="M533.09,-413.21C564.93,-387.24 625.05,-338.21 656.95,-312.19"/>
</g>
<!-- regulacion&#45;&gt;cultura -->
<g id="edge35" class="edge">
<title>regulacion&#45;&gt;cultura</title>
<path fill="none" stroke="#81c995" stroke-width="1.2" stroke-dasharray="5,2" d="M572.22,-308C581.85,-309.59 591.7,-310.99 601.07,-311.97 696.41,-321.91 2245.2,-303.49 2326.07,-354.97 2502.04,-467.01 2437.79,-688.79 2277.07,-821.79 2204.03,-882.24 1519.43,-867.55 1426.07,-884.04 1390.5,-890.33 1351.78,-900.93 1319.91,-910.71"/>
<text xml:space="preserve" text-anchor="start" x="2431.17" y="-589.83" font-family="Helvetica Neue" font-size="9.00" fill="#1b7a3d">dimensión</text>
<text xml:space="preserve" text-anchor="start" x="2437.17" y="-578.58" font-family="Helvetica Neue" font-size="9.00" fill="#1b7a3d">cultural</text>
</g>
<!-- arbitrage -->
<g id="node20" class="node">
<title>arbitrage</title>
<path fill="#ceead6" stroke="#cccccc" stroke-width="0.8" d="M552.94,-183.41C552.94,-183.41 465.19,-183.41 465.19,-183.41 459.19,-183.41 453.19,-177.41 453.19,-171.41 453.19,-171.41 453.19,-159.41 453.19,-159.41 453.19,-153.41 459.19,-147.41 465.19,-147.41 465.19,-147.41 552.94,-147.41 552.94,-147.41 558.94,-147.41 564.94,-153.41 564.94,-159.41 564.94,-159.41 564.94,-171.41 564.94,-171.41 564.94,-177.41 558.94,-183.41 552.94,-183.41"/>
<text xml:space="preserve" text-anchor="start" x="471.19" y="-161.71" font-family="Helvetica Neue" font-size="11.00">Labor arbitrage</text>
</g>
<!-- regulacion&#45;&gt;arbitrage -->
<g id="edge12" class="edge">
<title>regulacion&#45;&gt;arbitrage</title>
<path fill="none" stroke="#81c995" d="M509.07,-275.64C509.07,-251.4 509.07,-207.66 509.07,-183.54"/>
</g>
<!-- nearshoring&#45;&gt;aldea -->
<g id="edge34" class="edge">
<title>nearshoring&#45;&gt;aldea</title>
<path fill="none" stroke="#81c995" stroke-width="1.2" stroke-dasharray="5,2" d="M725.68,-306.23C736.29,-308.42 747.52,-310.49 758.07,-311.97 825.9,-321.5 1326.35,-304.87 1373.07,-354.97 1376.48,-358.63 1374.91,-361.57 1373.07,-366.22 1317.86,-505.69 1276.37,-545.47 1142.07,-612.26 1129.34,-618.6 647.24,-665.33 633.07,-666.51 535.23,-674.72 285.78,-664.21 192.07,-693.51 171.51,-699.94 150.78,-712.88 135.87,-723.6"/>
<text xml:space="preserve" text-anchor="start" x="1305.98" y="-510.45" font-family="Helvetica Neue" font-size="9.00" fill="#1b7a3d">geografía</text>
<text xml:space="preserve" text-anchor="start" x="1303.73" y="-499.2" font-family="Helvetica Neue" font-size="9.00" fill="#1b7a3d">del trabajo</text>
</g>
<!-- precariado&#45;&gt;situacion -->
<g id="edge16" class="edge">
<title>precariado&#45;&gt;situacion</title>
<path fill="none" stroke="#81c995" d="M694.89,-723.51C685.32,-704.78 667.98,-674.93 646.07,-655.26 623.89,-635.37 594.75,-619.55 569.78,-608.28"/>
</g>
<!-- gigeconomy -->
<g id="node23" class="node">
<title>gigeconomy</title>
<path fill="#ceead6" stroke="#cccccc" stroke-width="0.8" d="M718.32,-605.13C718.32,-605.13 641.82,-605.13 641.82,-605.13 635.82,-605.13 629.82,-599.13 629.82,-593.13 629.82,-593.13 629.82,-581.13 629.82,-581.13 629.82,-575.13 635.82,-569.13 641.82,-569.13 641.82,-569.13 718.32,-569.13 718.32,-569.13 724.32,-569.13 730.32,-575.13 730.32,-581.13 730.32,-581.13 730.32,-593.13 730.32,-593.13 730.32,-599.13 724.32,-605.13 718.32,-605.13"/>
<text xml:space="preserve" text-anchor="start" x="647.82" y="-583.43" font-family="Helvetica Neue" font-size="11.00">Gig economy</text>
</g>
<!-- precariado&#45;&gt;gigeconomy -->
<g id="edge14" class="edge">
<title>precariado&#45;&gt;gigeconomy</title>
<path fill="none" stroke="#81c995" d="M705.48,-723.6C707.45,-706.22 709.28,-678.65 705.07,-655.26 701.89,-637.64 694.38,-618.6 688.41,-605.32"/>
</g>
<!-- gigeconomy&#45;&gt;digital -->
<g id="edge39" class="edge">
<title>gigeconomy&#45;&gt;digital</title>
<path fill="none" stroke="#81c995" stroke-width="1.2" stroke-dasharray="5,2" d="M699.38,-605.52C729.07,-631.49 788.05,-673.94 840.69,-656.89 871.93,-646.77 901.55,-622.31 919.5,-605.23"/>
<text xml:space="preserve" text-anchor="start" x="793.44" y="-657.96" font-family="Helvetica Neue" font-size="9.00" fill="#1b7a3d">plataformas</text>
</g>
<!-- nuevasformas -->
<g id="node24" class="node">
<title>nuevasformas</title>
<path fill="#ceead6" stroke="#cccccc" stroke-width="0.8" d="M735.82,-453.5C735.82,-453.5 650.32,-453.5 650.32,-453.5 644.32,-453.5 638.32,-447.5 638.32,-441.5 638.32,-441.5 638.32,-421.22 638.32,-421.22 638.32,-415.22 644.32,-409.22 650.32,-409.22 650.32,-409.22 735.82,-409.22 735.82,-409.22 741.82,-409.22 747.82,-415.22 747.82,-421.22 747.82,-421.22 747.82,-441.5 747.82,-441.5 747.82,-447.5 741.82,-453.5 735.82,-453.5"/>
<text xml:space="preserve" text-anchor="start" x="656.32" y="-434.41" font-family="Helvetica Neue" font-size="11.00">Nuevas formas</text>
<text xml:space="preserve" text-anchor="start" x="666.82" y="-420.91" font-family="Helvetica Neue" font-size="11.00">de empleo</text>
</g>
<!-- gigeconomy&#45;&gt;nuevasformas -->
<g id="edge15" class="edge">
<title>gigeconomy&#45;&gt;nuevasformas</title>
<path fill="none" stroke="#81c995" d="M681.53,-568.79C683.92,-540.52 688.65,-484.55 691.25,-453.82"/>
</g>
<!-- riesgo -->
<g id="node28" class="node">
<title>riesgo</title>
<path fill="#e9d2fd" stroke="#cccccc" stroke-width="0.8" d="M1964.88,-162.16C1964.88,-162.16 1964.88,-168.67 1964.88,-168.67 1964.88,-171.92 1961.91,-176.5 1958.94,-177.82 1958.94,-177.82 1939.88,-186.32 1939.88,-186.32 1936.91,-187.65 1930.69,-188.97 1927.44,-188.97 1927.44,-188.97 1896.7,-188.97 1896.7,-188.97 1893.44,-188.97 1887.22,-187.65 1884.25,-186.32 1884.25,-186.32 1865.2,-177.82 1865.2,-177.82 1862.23,-176.5 1859.26,-171.92 1859.26,-168.67 1859.26,-168.67 1859.26,-162.16 1859.26,-162.16 1859.26,-158.91 1862.23,-154.33 1865.2,-153 1865.2,-153 1884.25,-144.51 1884.25,-144.51 1887.22,-143.18 1893.44,-141.85 1896.7,-141.85 1896.7,-141.85 1927.44,-141.85 1927.44,-141.85 1930.69,-141.85 1936.91,-143.18 1939.88,-144.51 1939.88,-144.51 1958.94,-153 1958.94,-153 1961.91,-154.33 1964.88,-158.91 1964.88,-162.16"/>
<text xml:space="preserve" text-anchor="start" x="1895.57" y="-161.71" font-family="Helvetica Neue" font-size="11.00">Riesgo</text>
</g>
<!-- finanzas&#45;&gt;riesgo -->
<g id="edge19" class="edge">
<title>finanzas&#45;&gt;riesgo</title>
<path fill="none" stroke="#c58af9" d="M1907.76,-275.37C1908.65,-252.82 1910.2,-213.7 1911.17,-188.98"/>
</g>
<!-- inclusion -->
<g id="node29" class="node">
<title>inclusion</title>
<path fill="#e9d2fd" stroke="#cccccc" stroke-width="0.8" d="M2140.94,-183.41C2140.94,-183.41 2035.19,-183.41 2035.19,-183.41 2029.19,-183.41 2023.19,-177.41 2023.19,-171.41 2023.19,-171.41 2023.19,-159.41 2023.19,-159.41 2023.19,-153.41 2029.19,-147.41 2035.19,-147.41 2035.19,-147.41 2140.94,-147.41 2140.94,-147.41 2146.94,-147.41 2152.94,-153.41 2152.94,-159.41 2152.94,-159.41 2152.94,-171.41 2152.94,-171.41 2152.94,-177.41 2146.94,-183.41 2140.94,-183.41"/>
<text xml:space="preserve" text-anchor="start" x="2041.19" y="-161.71" font-family="Helvetica Neue" font-size="11.00">Inclusión financiera</text>
</g>
<!-- finanzas&#45;&gt;inclusion -->
<g id="edge18" class="edge">
<title>finanzas&#45;&gt;inclusion</title>
<path fill="none" stroke="#c58af9" d="M1932.23,-275.37C1966.91,-251.13 2028.99,-207.72 2063.4,-183.66"/>
</g>
<!-- beneficios -->
<g id="node26" class="node">
<title>beneficios</title>
<path fill="#e9d2fd" stroke="#cccccc" stroke-width="0.8" d="M2027.57,-952.44C2027.57,-952.44 1964.57,-952.44 1964.57,-952.44 1958.57,-952.44 1952.57,-946.44 1952.57,-940.44 1952.57,-940.44 1952.57,-928.44 1952.57,-928.44 1952.57,-922.44 1958.57,-916.44 1964.57,-916.44 1964.57,-916.44 2027.57,-916.44 2027.57,-916.44 2033.57,-916.44 2039.57,-922.44 2039.57,-928.44 2039.57,-928.44 2039.57,-940.44 2039.57,-940.44 2039.57,-946.44 2033.57,-952.44 2027.57,-952.44"/>
<text xml:space="preserve" text-anchor="start" x="1970.57" y="-930.74" font-family="Helvetica Neue" font-size="11.00">Beneficios</text>
</g>
<!-- oportunidades -->
<g id="node27" class="node">
<title>oportunidades</title>
<path fill="#e9d2fd" stroke="#cccccc" stroke-width="0.8" d="M2038.82,-759.79C2038.82,-759.79 1953.32,-759.79 1953.32,-759.79 1947.32,-759.79 1941.32,-753.79 1941.32,-747.79 1941.32,-747.79 1941.32,-735.79 1941.32,-735.79 1941.32,-729.79 1947.32,-723.79 1953.32,-723.79 1953.32,-723.79 2038.82,-723.79 2038.82,-723.79 2044.82,-723.79 2050.82,-729.79 2050.82,-735.79 2050.82,-735.79 2050.82,-747.79 2050.82,-747.79 2050.82,-753.79 2044.82,-759.79 2038.82,-759.79"/>
<text xml:space="preserve" text-anchor="start" x="1959.32" y="-738.09" font-family="Helvetica Neue" font-size="11.00">Oportunidades</text>
</g>
<!-- beneficios&#45;&gt;oportunidades -->
<g id="edge17" class="edge">
<title>beneficios&#45;&gt;oportunidades</title>
<path fill="none" stroke="#c58af9" d="M1996.07,-916.19C1996.07,-879.98 1996.07,-796.44 1996.07,-760.15"/>
</g>
<!-- riesgo&#45;&gt;chokepoints -->
<g id="edge36" class="edge">
<title>riesgo&#45;&gt;chokepoints</title>
<path fill="none" stroke="#c58af9" stroke-width="1.2" stroke-dasharray="5,2" d="M1935.94,-188.27C1966.37,-218.74 2011.39,-274.46 1979.07,-311.97 1749.54,-578.37 751.63,-447.49 414.07,-546 398.46,-550.55 382.05,-557.25 367.57,-563.88"/>
<text xml:space="preserve" text-anchor="start" x="1928.3" y="-357.67" font-family="Helvetica Neue" font-size="9.00" fill="#7b2d8e">vulnerabilidad</text>
</g>
<!-- leg_tech -->
<g id="node30" class="node">
<title>leg_tech</title>
<path fill="#d2e3fc" stroke="#cccccc" stroke-width="0.8" d="M2626.03,-945.83C2626.03,-945.83 2576.11,-945.83 2576.11,-945.83 2572.31,-945.83 2568.52,-942.03 2568.52,-938.24 2568.52,-938.24 2568.52,-930.65 2568.52,-930.65 2568.52,-926.85 2572.31,-923.06 2576.11,-923.06 2576.11,-923.06 2626.03,-923.06 2626.03,-923.06 2629.82,-923.06 2633.62,-926.85 2633.62,-930.65 2633.62,-930.65 2633.62,-938.24 2633.62,-938.24 2633.62,-942.03 2629.82,-945.83 2626.03,-945.83"/>
<text xml:space="preserve" text-anchor="start" x="2579.32" y="-931.52" font-family="Helvetica Neue" font-size="9.00">Tecnología</text>
</g>
<!-- leg_sist -->
<g id="node31" class="node">
<title>leg_sist</title>
<path fill="#feefc3" stroke="#cccccc" stroke-width="0.8" d="M2629.03,-753.18C2629.03,-753.18 2573.11,-753.18 2573.11,-753.18 2569.31,-753.18 2565.52,-749.38 2565.52,-745.59 2565.52,-745.59 2565.52,-738 2565.52,-738 2565.52,-734.2 2569.31,-730.41 2573.11,-730.41 2573.11,-730.41 2629.03,-730.41 2629.03,-730.41 2632.82,-730.41 2636.62,-734.2 2636.62,-738 2636.62,-738 2636.62,-745.59 2636.62,-745.59 2636.62,-749.38 2632.82,-753.18 2629.03,-753.18"/>
<text xml:space="preserve" text-anchor="start" x="2576.32" y="-738.87" font-family="Helvetica Neue" font-size="9.00">Sistema intl.</text>
</g>
<!-- leg_tech&#45;&gt;leg_sist -->
<!-- leg_marcos -->
<g id="node32" class="node">
<title>leg_marcos</title>
<path fill="#fad2cf" stroke="#cccccc" stroke-width="0.8" d="M2589.33,-607.39C2589.33,-607.39 2506.45,-589.64 2506.45,-589.64 2500.58,-588.39 2500.58,-585.88 2506.45,-584.62 2506.45,-584.62 2589.33,-566.87 2589.33,-566.87 2595.2,-565.62 2606.93,-565.62 2612.8,-566.87 2612.8,-566.87 2695.68,-584.62 2695.68,-584.62 2701.55,-585.88 2701.55,-588.39 2695.68,-589.64 2695.68,-589.64 2612.8,-607.39 2612.8,-607.39 2606.93,-608.65 2595.2,-608.65 2589.33,-607.39"/>
<text xml:space="preserve" text-anchor="start" x="2558.69" y="-584.21" font-family="Helvetica Neue" font-size="9.00">Marcos conceptuales</text>
</g>
<!-- leg_sist&#45;&gt;leg_marcos -->
<!-- leg_trabajo -->
<g id="node33" class="node">
<title>leg_trabajo</title>
<path fill="#ceead6" stroke="#cccccc" stroke-width="0.8" d="M2633.15,-442.75C2633.15,-442.75 2568.98,-442.75 2568.98,-442.75 2565.19,-442.75 2561.39,-438.95 2561.39,-435.16 2561.39,-435.16 2561.39,-427.57 2561.39,-427.57 2561.39,-423.77 2565.19,-419.98 2568.98,-419.98 2568.98,-419.98 2633.15,-419.98 2633.15,-419.98 2636.95,-419.98 2640.74,-423.77 2640.74,-427.57 2640.74,-427.57 2640.74,-435.16 2640.74,-435.16 2640.74,-438.95 2636.95,-442.75 2633.15,-442.75"/>
<text xml:space="preserve" text-anchor="start" x="2572.19" y="-428.44" font-family="Helvetica Neue" font-size="9.00">Mundo laboral</text>
</g>
<!-- leg_marcos&#45;&gt;leg_trabajo -->
<!-- leg_impacto -->
<g id="node34" class="node">
<title>leg_impacto</title>
<path fill="#e9d2fd" stroke="#cccccc" stroke-width="0.8" d="M2622.65,-305.36C2622.65,-305.36 2579.48,-305.36 2579.48,-305.36 2575.69,-305.36 2571.89,-301.56 2571.89,-297.77 2571.89,-297.77 2571.89,-290.18 2571.89,-290.18 2571.89,-286.38 2575.69,-282.59 2579.48,-282.59 2579.48,-282.59 2622.65,-282.59 2622.65,-282.59 2626.45,-282.59 2630.24,-286.38 2630.24,-290.18 2630.24,-290.18 2630.24,-297.77 2630.24,-297.77 2630.24,-301.56 2626.45,-305.36 2622.65,-305.36"/>
<text xml:space="preserve" text-anchor="start" x="2582.69" y="-291.05" font-family="Helvetica Neue" font-size="9.00">Impactos</text>
</g>
<!-- leg_trabajo&#45;&gt;leg_impacto -->
<!-- leg_tool -->
<g id="node35" class="node">
<title>leg_tool</title>
<polygon fill="#fad2cf" stroke="#cccccc" stroke-width="0.8" points="2632.45,-176.8 2565.89,-176.8 2565.89,-154.03 2636.24,-154.03 2636.24,-173 2632.45,-176.8"/>
<polyline fill="none" stroke="#cccccc" stroke-width="0.8" points="2632.45,-176.8 2632.45,-173"/>
<polyline fill="none" stroke="#cccccc" stroke-width="0.8" points="2636.24,-173 2632.45,-173"/>
<text xml:space="preserve" text-anchor="start" x="2576.69" y="-162.49" font-family="Helvetica Neue" font-size="9.00">Herramienta</text>
</g>
<!-- leg_impacto&#45;&gt;leg_tool -->
<!-- leg_risk -->
<g id="node36" class="node">
<title>leg_risk</title>
<path fill="#e9d2fd" stroke="#cccccc" stroke-width="0.8" d="M2683.61,-35.02C2683.61,-35.02 2683.61,-39.83 2683.61,-39.83 2683.61,-42.24 2681.26,-45.14 2678.9,-45.64 2678.9,-45.64 2639.97,-53.86 2639.97,-53.86 2637.61,-54.36 2632.85,-54.85 2630.45,-54.85 2630.45,-54.85 2571.69,-54.85 2571.69,-54.85 2569.28,-54.85 2564.52,-54.36 2562.17,-53.86 2562.17,-53.86 2523.23,-45.64 2523.23,-45.64 2520.88,-45.14 2518.52,-42.24 2518.52,-39.83 2518.52,-39.83 2518.52,-35.02 2518.52,-35.02 2518.52,-32.61 2520.88,-29.71 2523.23,-29.21 2523.23,-29.21 2562.17,-20.99 2562.17,-20.99 2564.52,-20.5 2569.28,-20 2571.69,-20 2571.69,-20 2630.45,-20 2630.45,-20 2632.85,-20 2637.61,-20.5 2639.97,-20.99 2639.97,-20.99 2678.9,-29.21 2678.9,-29.21 2681.26,-29.71 2683.61,-32.61 2683.61,-35.02"/>
<text xml:space="preserve" text-anchor="start" x="2557.94" y="-34.5" font-family="Helvetica Neue" font-size="9.00">Riesgo / punto crítico</text>
</g>
<!-- leg_tool&#45;&gt;leg_risk -->
</g>
</svg>
