<!-- 8-bit Megaphone / Announcements icon -->
<svg xmlns="http://www.w3.org/2000/svg" viewBox="0 0 16 16" width="32" height="32" shape-rendering="crispEdges">
  <rect x="12" y="1" width="2" height="1" fill="#111"/>
  <rect x="10" y="2" width="2" height="1" fill="#111"/>
  <rect x="12" y="2" width="2" height="1" fill="#ff6b6b"/>
  <rect x="14" y="2" width="1" height="1" fill="#111"/>
  <rect x="8" y="3" width="2" height="1" fill="#111"/>
  <rect x="10" y="3" width="4" height="1" fill="#ff6b6b"/>
  <rect x="14" y="3" width="1" height="1" fill="#111"/>
  <rect x="1" y="4" width="7" height="1" fill="#111"/>
  <rect x="8" y="4" width="6" height="1" fill="#ff6b6b"/>
  <rect x="14" y="4" width="1" height="1" fill="#111"/>
  <rect x="0" y="5" width="1" height="1" fill="#111"/>
  <rect x="1" y="5" width="6" height="1" fill="#ff6b6b"/>
  <rect x="7" y="5" width="1" height="1" fill="#111"/>
  <rect x="8" y="5" width="6" height="1" fill="#ff6b6b"/>
  <rect x="14" y="5" width="2" height="1" fill="#111"/>
  <rect x="0" y="6" width="1" height="1" fill="#111"/>
  <rect x="1" y="6" width="6" height="1" fill="#ff6b6b"/>
  <rect x="7" y="6" width="1" height="1" fill="#111"/>
  <rect x="8" y="6" width="6" height="1" fill="#ff6b6b"/>
  <rect x="14" y="6" width="1" height="1" fill="#ee5a5a"/>
  <rect x="15" y="6" width="1" height="1" fill="#111"/>
  <rect x="0" y="7" width="1" height="1" fill="#111"/>
  <rect x="1" y="7" width="6" height="1" fill="#ff6b6b"/>
  <rect x="7" y="7" width="1" height="1" fill="#111"/>
  <rect x="8" y="7" width="6" height="1" fill="#ff6b6b"/>
  <rect x="14" y="7" width="2" height="1" fill="#111"/>
  <rect x="0" y="8" width="1" height="1" fill="#111"/>
  <rect x="1" y="8" width="6" height="1" fill="#ff6b6b"/>
  <rect x="7" y="8" width="1" height="1" fill="#111"/>
  <rect x="8" y="8" width="6" height="1" fill="#ff6b6b"/>
  <rect x="14" y="8" width="1" height="1" fill="#111"/>
  <rect x="0" y="9" width="1" height="1" fill="#111"/>
  <rect x="1" y="9" width="6" height="1" fill="#ff6b6b"/>
  <rect x="7" y="9" width="1" height="1" fill="#111"/>
  <rect x="8" y="9" width="6" height="1" fill="#ff6b6b"/>
  <rect x="14" y="9" width="1" height="1" fill="#111"/>
  <rect x="1" y="10" width="7" height="1" fill="#111"/>
  <rect x="8" y="10" width="6" height="1" fill="#ff6b6b"/>
  <rect x="14" y="10" width="1" height="1" fill="#111"/>
  <rect x="2" y="11" width="2" height="1" fill="#111"/>
  <rect x="8" y="11" width="2" height="1" fill="#111"/>
  <rect x="10" y="11" width="4" height="1" fill="#ff6b6b"/>
  <rect x="14" y="11" width="1" height="1" fill="#111"/>
  <rect x="2" y="12" width="1" height="1" fill="#ffd93d"/>
  <rect x="3" y="12" width="1" height="1" fill="#111"/>
  <rect x="10" y="12" width="2" height="1" fill="#111"/>
  <rect x="12" y="12" width="2" height="1" fill="#ff6b6b"/>
  <rect x="14" y="12" width="1" height="1" fill="#111"/>
  <rect x="2" y="13" width="2" height="1" fill="#ffd93d"/>
  <rect x="4" y="13" width="1" height="1" fill="#111"/>
  <rect x="12" y="13" width="2" height="1" fill="#111"/>
  <rect x="3" y="14" width="2" height="1" fill="#111"/>
</svg>
