<!-- 8-bit Lock icon -->
<svg xmlns="http://www.w3.org/2000/svg" viewBox="0 0 16 16" width="32" height="32" shape-rendering="crispEdges">
  <rect x="5" y="1" width="6" height="1" fill="#111"/>
  <rect x="4" y="2" width="1" height="1" fill="#111"/>
  <rect x="5" y="2" width="6" height="1" fill="#ffd93d"/>
  <rect x="11" y="2" width="1" height="1" fill="#111"/>
  <rect x="3" y="3" width="1" height="1" fill="#111"/>
  <rect x="4" y="3" width="1" height="1" fill="#ffd93d"/>
  <rect x="5" y="3" width="1" height="1" fill="#111"/>
  <rect x="10" y="3" width="1" height="1" fill="#111"/>
  <rect x="11" y="3" width="1" height="1" fill="#ffd93d"/>
  <rect x="12" y="3" width="1" height="1" fill="#111"/>
  <rect x="3" y="4" width="1" height="1" fill="#111"/>
  <rect x="4" y="4" width="1" height="1" fill="#ffd93d"/>
  <rect x="5" y="4" width="1" height="1" fill="#111"/>
  <rect x="10" y="4" width="1" height="1" fill="#111"/>
  <rect x="11" y="4" width="1" height="1" fill="#ffd93d"/>
  <rect x="12" y="4" width="1" height="1" fill="#111"/>
  <rect x="3" y="5" width="1" height="1" fill="#111"/>
  <rect x="4" y="5" width="1" height="1" fill="#ffd93d"/>
  <rect x="5" y="5" width="1" height="1" fill="#111"/>
  <rect x="10" y="5" width="1" height="1" fill="#111"/>
  <rect x="11" y="5" width="1" height="1" fill="#ffd93d"/>
  <rect x="12" y="5" width="1" height="1" fill="#111"/>
  <rect x="1" y="6" width="14" height="1" fill="#111"/>
  <rect x="0" y="7" width="1" height="1" fill="#111"/>
  <rect x="1" y="7" width="14" height="1" fill="#888"/>
  <rect x="15" y="7" width="1" height="1" fill="#111"/>
  <rect x="0" y="8" width="1" height="1" fill="#111"/>
  <rect x="1" y="8" width="14" height="1" fill="#aaa"/>
  <rect x="15" y="8" width="1" height="1" fill="#111"/>
  <rect x="0" y="9" width="1" height="1" fill="#111"/>
  <rect x="1" y="9" width="6" height="1" fill="#aaa"/>
  <rect x="7" y="9" width="2" height="1" fill="#111"/>
  <rect x="9" y="9" width="6" height="1" fill="#aaa"/>
  <rect x="15" y="9" width="1" height="1" fill="#111"/>
  <rect x="0" y="10" width="1" height="1" fill="#111"/>
  <rect x="1" y="10" width="6" height="1" fill="#aaa"/>
  <rect x="7" y="10" width="2" height="1" fill="#111"/>
  <rect x="9" y="10" width="6" height="1" fill="#aaa"/>
  <rect x="15" y="10" width="1" height="1" fill="#111"/>
  <rect x="0" y="11" width="1" height="1" fill="#111"/>
  <rect x="1" y="11" width="5" height="1" fill="#aaa"/>
  <rect x="6" y="11" width="1" height="1" fill="#111"/>
  <rect x="7" y="11" width="2" height="1" fill="#ffd93d"/>
  <rect x="9" y="11" width="1" height="1" fill="#111"/>
  <rect x="10" y="11" width="5" height="1" fill="#aaa"/>
  <rect x="15" y="11" width="1" height="1" fill="#111"/>
  <rect x="0" y="12" width="1" height="1" fill="#111"/>
  <rect x="1" y="12" width="14" height="1" fill="#aaa"/>
  <rect x="15" y="12" width="1" height="1" fill="#111"/>
  <rect x="0" y="13" width="1" height="1" fill="#111"/>
  <rect x="1" y="13" width="14" height="1" fill="#888"/>
  <rect x="15" y="13" width="1" height="1" fill="#111"/>
  <rect x="1" y="14" width="14" height="1" fill="#111"/>
</svg>
