<!-- 8-bit Pencil / Sessions icon -->
<svg xmlns="http://www.w3.org/2000/svg" viewBox="0 0 16 16" width="32" height="32" shape-rendering="crispEdges">
  <rect x="11" y="0" width="2" height="1" fill="#111"/>
  <rect x="10" y="1" width="1" height="1" fill="#111"/>
  <rect x="11" y="1" width="2" height="1" fill="#ffd93d"/>
  <rect x="13" y="1" width="1" height="1" fill="#111"/>
  <rect x="9" y="2" width="1" height="1" fill="#111"/>
  <rect x="10" y="2" width="3" height="1" fill="#ffd93d"/>
  <rect x="13" y="2" width="1" height="1" fill="#111"/>
  <rect x="8" y="3" width="1" height="1" fill="#111"/>
  <rect x="9" y="3" width="3" height="1" fill="#ff6b6b"/>
  <rect x="12" y="3" width="1" height="1" fill="#111"/>
  <rect x="7" y="4" width="1" height="1" fill="#111"/>
  <rect x="8" y="4" width="3" height="1" fill="#ff6b6b"/>
  <rect x="11" y="4" width="1" height="1" fill="#111"/>
  <rect x="6" y="5" width="1" height="1" fill="#111"/>
  <rect x="7" y="5" width="3" height="1" fill="#ff6b6b"/>
  <rect x="10" y="5" width="1" height="1" fill="#111"/>
  <rect x="5" y="6" width="1" height="1" fill="#111"/>
  <rect x="6" y="6" width="3" height="1" fill="#ff6b6b"/>
  <rect x="9" y="6" width="1" height="1" fill="#111"/>
  <rect x="4" y="7" width="1" height="1" fill="#111"/>
  <rect x="5" y="7" width="3" height="1" fill="#ff6b6b"/>
  <rect x="8" y="7" width="1" height="1" fill="#111"/>
  <rect x="3" y="8" width="1" height="1" fill="#111"/>
  <rect x="4" y="8" width="3" height="1" fill="#ff6b6b"/>
  <rect x="7" y="8" width="1" height="1" fill="#111"/>
  <rect x="2" y="9" width="1" height="1" fill="#111"/>
  <rect x="3" y="9" width="3" height="1" fill="#ff6b6b"/>
  <rect x="6" y="9" width="1" height="1" fill="#111"/>
  <rect x="1" y="10" width="1" height="1" fill="#111"/>
  <rect x="2" y="10" width="3" height="1" fill="#ff6b6b"/>
  <rect x="5" y="10" width="1" height="1" fill="#111"/>
  <rect x="1" y="11" width="1" height="1" fill="#111"/>
  <rect x="2" y="11" width="2" height="1" fill="#e8c4a0"/>
  <rect x="4" y="11" width="1" height="1" fill="#111"/>
  <rect x="1" y="12" width="1" height="1" fill="#111"/>
  <rect x="2" y="12" width="1" height="1" fill="#e8c4a0"/>
  <rect x="3" y="12" width="1" height="1" fill="#111"/>
  <rect x="1" y="13" width="1" height="1" fill="#111"/>
  <rect x="2" y="13" width="1" height="1" fill="#111"/>
  <rect x="1" y="14" width="1" height="1" fill="#111"/>
</svg>
