<!-- 8-bit Calendar icon -->
<svg xmlns="http://www.w3.org/2000/svg" viewBox="0 0 16 16" width="32" height="32" shape-rendering="crispEdges">
  <rect x="3" y="0" width="2" height="2" fill="#111"/>
  <rect x="11" y="0" width="2" height="2" fill="#111"/>
  <rect x="1" y="1" width="14" height="1" fill="#111"/>
  <rect x="0" y="2" width="1" height="1" fill="#111"/>
  <rect x="1" y="2" width="14" height="1" fill="#ff6b6b"/>
  <rect x="15" y="2" width="1" height="1" fill="#111"/>
  <rect x="0" y="3" width="1" height="1" fill="#111"/>
  <rect x="1" y="3" width="14" height="1" fill="#ff6b6b"/>
  <rect x="15" y="3" width="1" height="1" fill="#111"/>
  <rect x="0" y="4" width="16" height="1" fill="#111"/>
  <rect x="0" y="5" width="1" height="1" fill="#111"/>
  <rect x="1" y="5" width="2" height="1" fill="#fff"/>
  <rect x="3" y="5" width="1" height="1" fill="#111"/>
  <rect x="4" y="5" width="2" height="1" fill="#fff"/>
  <rect x="6" y="5" width="1" height="1" fill="#111"/>
  <rect x="7" y="5" width="2" height="1" fill="#fff"/>
  <rect x="9" y="5" width="1" height="1" fill="#111"/>
  <rect x="10" y="5" width="2" height="1" fill="#fff"/>
  <rect x="12" y="5" width="1" height="1" fill="#111"/>
  <rect x="13" y="5" width="2" height="1" fill="#fff"/>
  <rect x="15" y="5" width="1" height="1" fill="#111"/>
  <rect x="0" y="6" width="16" height="1" fill="#111"/>
  <rect x="0" y="7" width="1" height="1" fill="#111"/>
  <rect x="1" y="7" width="2" height="1" fill="#fff"/>
  <rect x="3" y="7" width="1" height="1" fill="#111"/>
  <rect x="4" y="7" width="2" height="1" fill="#fff"/>
  <rect x="6" y="7" width="1" height="1" fill="#111"/>
  <rect x="7" y="7" width="2" height="1" fill="#fff"/>
  <rect x="9" y="7" width="1" height="1" fill="#111"/>
  <rect x="10" y="7" width="2" height="1" fill="#fff"/>
  <rect x="12" y="7" width="1" height="1" fill="#111"/>
  <rect x="13" y="7" width="2" height="1" fill="#fff"/>
  <rect x="15" y="7" width="1" height="1" fill="#111"/>
  <rect x="0" y="8" width="16" height="1" fill="#111"/>
  <rect x="0" y="9" width="1" height="1" fill="#111"/>
  <rect x="1" y="9" width="2" height="1" fill="#fff"/>
  <rect x="3" y="9" width="1" height="1" fill="#111"/>
  <rect x="4" y="9" width="2" height="1" fill="#fff"/>
  <rect x="6" y="9" width="1" height="1" fill="#111"/>
  <rect x="7" y="9" width="2" height="1" fill="#ffd93d"/>
  <rect x="9" y="9" width="1" height="1" fill="#111"/>
  <rect x="10" y="9" width="2" height="1" fill="#fff"/>
  <rect x="12" y="9" width="1" height="1" fill="#111"/>
  <rect x="13" y="9" width="2" height="1" fill="#fff"/>
  <rect x="15" y="9" width="1" height="1" fill="#111"/>
  <rect x="0" y="10" width="16" height="1" fill="#111"/>
  <rect x="0" y="11" width="1" height="1" fill="#111"/>
  <rect x="1" y="11" width="2" height="1" fill="#fff"/>
  <rect x="3" y="11" width="1" height="1" fill="#111"/>
  <rect x="4" y="11" width="2" height="1" fill="#fff"/>
  <rect x="6" y="11" width="1" height="1" fill="#111"/>
  <rect x="7" y="11" width="2" height="1" fill="#fff"/>
  <rect x="9" y="11" width="1" height="1" fill="#111"/>
  <rect x="10" y="11" width="2" height="1" fill="#fff"/>
  <rect x="12" y="11" width="1" height="1" fill="#111"/>
  <rect x="13" y="11" width="2" height="1" fill="#fff"/>
  <rect x="15" y="11" width="1" height="1" fill="#111"/>
  <rect x="0" y="12" width="16" height="1" fill="#111"/>
  <rect x="0" y="13" width="1" height="1" fill="#111"/>
  <rect x="1" y="13" width="2" height="1" fill="#fff"/>
  <rect x="3" y="13" width="1" height="1" fill="#111"/>
  <rect x="4" y="13" width="2" height="1" fill="#fff"/>
  <rect x="6" y="13" width="1" height="1" fill="#111"/>
  <rect x="7" y="13" width="8" height="1" fill="#e0e0e0"/>
  <rect x="15" y="13" width="1" height="1" fill="#111"/>
  <rect x="0" y="14" width="16" height="1" fill="#111"/>
</svg>
