<!-- 8-bit Clipboard / Ficha icon -->
<svg xmlns="http://www.w3.org/2000/svg" viewBox="0 0 16 16" width="32" height="32" shape-rendering="crispEdges">
  <rect x="5" y="0" width="6" height="1" fill="#111"/>
  <rect x="4" y="1" width="1" height="1" fill="#111"/>
  <rect x="5" y="1" width="6" height="1" fill="#aaa"/>
  <rect x="11" y="1" width="1" height="1" fill="#111"/>
  <rect x="2" y="2" width="2" height="1" fill="#111"/>
  <rect x="4" y="2" width="1" height="1" fill="#aaa"/>
  <rect x="5" y="2" width="6" height="1" fill="#111"/>
  <rect x="11" y="2" width="1" height="1" fill="#aaa"/>
  <rect x="12" y="2" width="2" height="1" fill="#111"/>
  <rect x="1" y="3" width="1" height="1" fill="#111"/>
  <rect x="2" y="3" width="12" height="1" fill="#fff"/>
  <rect x="14" y="3" width="1" height="1" fill="#111"/>
  <rect x="1" y="4" width="1" height="1" fill="#111"/>
  <rect x="2" y="4" width="12" height="1" fill="#fff"/>
  <rect x="14" y="4" width="1" height="1" fill="#111"/>
  <rect x="1" y="5" width="1" height="1" fill="#111"/>
  <rect x="2" y="5" width="1" height="1" fill="#fff"/>
  <rect x="3" y="5" width="8" height="1" fill="#111"/>
  <rect x="11" y="5" width="3" height="1" fill="#fff"/>
  <rect x="14" y="5" width="1" height="1" fill="#111"/>
  <rect x="1" y="6" width="1" height="1" fill="#111"/>
  <rect x="2" y="6" width="12" height="1" fill="#fff"/>
  <rect x="14" y="6" width="1" height="1" fill="#111"/>
  <rect x="1" y="7" width="1" height="1" fill="#111"/>
  <rect x="2" y="7" width="1" height="1" fill="#fff"/>
  <rect x="3" y="7" width="6" height="1" fill="#111"/>
  <rect x="9" y="7" width="5" height="1" fill="#fff"/>
  <rect x="14" y="7" width="1" height="1" fill="#111"/>
  <rect x="1" y="8" width="1" height="1" fill="#111"/>
  <rect x="2" y="8" width="12" height="1" fill="#fff"/>
  <rect x="14" y="8" width="1" height="1" fill="#111"/>
  <rect x="1" y="9" width="1" height="1" fill="#111"/>
  <rect x="2" y="9" width="1" height="1" fill="#fff"/>
  <rect x="3" y="9" width="9" height="1" fill="#111"/>
  <rect x="12" y="9" width="2" height="1" fill="#fff"/>
  <rect x="14" y="9" width="1" height="1" fill="#111"/>
  <rect x="1" y="10" width="1" height="1" fill="#111"/>
  <rect x="2" y="10" width="12" height="1" fill="#fff"/>
  <rect x="14" y="10" width="1" height="1" fill="#111"/>
  <rect x="1" y="11" width="1" height="1" fill="#111"/>
  <rect x="2" y="11" width="12" height="1" fill="#fff"/>
  <rect x="14" y="11" width="1" height="1" fill="#111"/>
  <rect x="1" y="12" width="1" height="1" fill="#111"/>
  <rect x="2" y="12" width="12" height="1" fill="#fff"/>
  <rect x="14" y="12" width="1" height="1" fill="#111"/>
  <rect x="1" y="13" width="1" height="1" fill="#111"/>
  <rect x="2" y="13" width="12" height="1" fill="#fff"/>
  <rect x="14" y="13" width="1" height="1" fill="#111"/>
  <rect x="2" y="14" width="12" height="1" fill="#111"/>
</svg>
