<!-- 8-bit Book / Units icon -->
<svg xmlns="http://www.w3.org/2000/svg" viewBox="0 0 16 16" width="32" height="32" shape-rendering="crispEdges">
  <rect x="2" y="1" width="12" height="1" fill="#111"/>
  <rect x="1" y="2" width="1" height="1" fill="#111"/>
  <rect x="2" y="2" width="5" height="1" fill="#6c5ce7"/>
  <rect x="7" y="2" width="1" height="1" fill="#111"/>
  <rect x="8" y="2" width="5" height="1" fill="#a29bfe"/>
  <rect x="13" y="2" width="1" height="1" fill="#111"/>
  <rect x="1" y="3" width="1" height="1" fill="#111"/>
  <rect x="2" y="3" width="5" height="1" fill="#fff"/>
  <rect x="7" y="3" width="1" height="1" fill="#111"/>
  <rect x="8" y="3" width="5" height="1" fill="#fff"/>
  <rect x="13" y="3" width="1" height="1" fill="#111"/>
  <rect x="1" y="4" width="1" height="1" fill="#111"/>
  <rect x="2" y="4" width="2" height="1" fill="#111"/>
  <rect x="4" y="4" width="3" height="1" fill="#fff"/>
  <rect x="7" y="4" width="1" height="1" fill="#111"/>
  <rect x="8" y="4" width="2" height="1" fill="#111"/>
  <rect x="10" y="4" width="3" height="1" fill="#fff"/>
  <rect x="13" y="4" width="1" height="1" fill="#111"/>
  <rect x="1" y="5" width="1" height="1" fill="#111"/>
  <rect x="2" y="5" width="5" height="1" fill="#fff"/>
  <rect x="7" y="5" width="1" height="1" fill="#111"/>
  <rect x="8" y="5" width="5" height="1" fill="#fff"/>
  <rect x="13" y="5" width="1" height="1" fill="#111"/>
  <rect x="1" y="6" width="1" height="1" fill="#111"/>
  <rect x="2" y="6" width="2" height="1" fill="#111"/>
  <rect x="4" y="6" width="3" height="1" fill="#fff"/>
  <rect x="7" y="6" width="1" height="1" fill="#111"/>
  <rect x="8" y="6" width="2" height="1" fill="#111"/>
  <rect x="10" y="6" width="3" height="1" fill="#fff"/>
  <rect x="13" y="6" width="1" height="1" fill="#111"/>
  <rect x="1" y="7" width="1" height="1" fill="#111"/>
  <rect x="2" y="7" width="5" height="1" fill="#fff"/>
  <rect x="7" y="7" width="1" height="1" fill="#111"/>
  <rect x="8" y="7" width="5" height="1" fill="#fff"/>
  <rect x="13" y="7" width="1" height="1" fill="#111"/>
  <rect x="1" y="8" width="1" height="1" fill="#111"/>
  <rect x="2" y="8" width="5" height="1" fill="#fff"/>
  <rect x="7" y="8" width="1" height="1" fill="#111"/>
  <rect x="8" y="8" width="5" height="1" fill="#fff"/>
  <rect x="13" y="8" width="1" height="1" fill="#111"/>
  <rect x="1" y="9" width="1" height="1" fill="#111"/>
  <rect x="2" y="9" width="5" height="1" fill="#fff"/>
  <rect x="7" y="9" width="1" height="1" fill="#111"/>
  <rect x="8" y="9" width="5" height="1" fill="#fff"/>
  <rect x="13" y="9" width="1" height="1" fill="#111"/>
  <rect x="1" y="10" width="1" height="1" fill="#111"/>
  <rect x="2" y="10" width="5" height="1" fill="#fff"/>
  <rect x="7" y="10" width="1" height="1" fill="#111"/>
  <rect x="8" y="10" width="5" height="1" fill="#fff"/>
  <rect x="13" y="10" width="1" height="1" fill="#111"/>
  <rect x="1" y="11" width="1" height="1" fill="#111"/>
  <rect x="2" y="11" width="5" height="1" fill="#6c5ce7"/>
  <rect x="7" y="11" width="1" height="1" fill="#111"/>
  <rect x="8" y="11" width="5" height="1" fill="#a29bfe"/>
  <rect x="13" y="11" width="1" height="1" fill="#111"/>
  <rect x="1" y="12" width="1" height="1" fill="#111"/>
  <rect x="2" y="12" width="5" height="1" fill="#6c5ce7"/>
  <rect x="7" y="12" width="1" height="1" fill="#111"/>
  <rect x="8" y="12" width="5" height="1" fill="#a29bfe"/>
  <rect x="13" y="12" width="1" height="1" fill="#111"/>
  <rect x="2" y="13" width="12" height="1" fill="#111"/>
</svg>
