<!-- 8-bit Note/Paper icon -->
<svg xmlns="http://www.w3.org/2000/svg" viewBox="0 0 16 16" width="32" height="32" shape-rendering="crispEdges">
  <rect x="2" y="1" width="9" height="1" fill="#111"/>
  <rect x="1" y="2" width="1" height="1" fill="#111"/>
  <rect x="2" y="2" width="9" height="1" fill="#ffd93d"/>
  <rect x="11" y="2" width="1" height="1" fill="#111"/>
  <rect x="1" y="3" width="1" height="1" fill="#111"/>
  <rect x="2" y="3" width="9" height="1" fill="#fff"/>
  <rect x="11" y="3" width="1" height="1" fill="#111"/>
  <rect x="12" y="3" width="1" height="1" fill="#111"/>
  <rect x="1" y="4" width="1" height="1" fill="#111"/>
  <rect x="2" y="4" width="1" height="1" fill="#fff"/>
  <rect x="3" y="4" width="7" height="1" fill="#111"/>
  <rect x="10" y="4" width="1" height="1" fill="#fff"/>
  <rect x="11" y="4" width="1" height="1" fill="#fff"/>
  <rect x="12" y="4" width="1" height="1" fill="#111"/>
  <rect x="13" y="4" width="1" height="1" fill="#111"/>
  <rect x="1" y="5" width="1" height="1" fill="#111"/>
  <rect x="2" y="5" width="11" height="1" fill="#fff"/>
  <rect x="13" y="5" width="1" height="1" fill="#111"/>
  <rect x="1" y="6" width="1" height="1" fill="#111"/>
  <rect x="2" y="6" width="1" height="1" fill="#fff"/>
  <rect x="3" y="6" width="8" height="1" fill="#111"/>
  <rect x="11" y="6" width="2" height="1" fill="#fff"/>
  <rect x="13" y="6" width="1" height="1" fill="#111"/>
  <rect x="1" y="7" width="1" height="1" fill="#111"/>
  <rect x="2" y="7" width="11" height="1" fill="#fff"/>
  <rect x="13" y="7" width="1" height="1" fill="#111"/>
  <rect x="1" y="8" width="1" height="1" fill="#111"/>
  <rect x="2" y="8" width="1" height="1" fill="#fff"/>
  <rect x="3" y="8" width="6" height="1" fill="#111"/>
  <rect x="9" y="8" width="4" height="1" fill="#fff"/>
  <rect x="13" y="8" width="1" height="1" fill="#111"/>
  <rect x="1" y="9" width="1" height="1" fill="#111"/>
  <rect x="2" y="9" width="11" height="1" fill="#fff"/>
  <rect x="13" y="9" width="1" height="1" fill="#111"/>
  <rect x="1" y="10" width="1" height="1" fill="#111"/>
  <rect x="2" y="10" width="11" height="1" fill="#fff"/>
  <rect x="13" y="10" width="1" height="1" fill="#111"/>
  <rect x="1" y="11" width="1" height="1" fill="#111"/>
  <rect x="2" y="11" width="1" height="1" fill="#fff"/>
  <rect x="3" y="11" width="5" height="1" fill="#111"/>
  <rect x="8" y="11" width="5" height="1" fill="#fff"/>
  <rect x="13" y="11" width="1" height="1" fill="#111"/>
  <rect x="1" y="12" width="1" height="1" fill="#111"/>
  <rect x="2" y="12" width="11" height="1" fill="#fff"/>
  <rect x="13" y="12" width="1" height="1" fill="#111"/>
  <rect x="2" y="13" width="11" height="1" fill="#111"/>
</svg>
