<!-- 8-bit Trend / Serie icon -->
<svg xmlns="http://www.w3.org/2000/svg" viewBox="0 0 16 16" width="32" height="32" shape-rendering="crispEdges">
  <rect x="3" y="2" width="1" height="11" fill="#111"/>
  <rect x="3" y="13" width="11" height="1" fill="#111"/>
  <rect x="4" y="11" width="1" height="1" fill="#4ecdc4"/>
  <rect x="5" y="10" width="2" height="1" fill="#4ecdc4"/>
  <rect x="7" y="9" width="1" height="1" fill="#4ecdc4"/>
  <rect x="8" y="8" width="1" height="1" fill="#4ecdc4"/>
  <rect x="9" y="7" width="1" height="1" fill="#4ecdc4"/>
  <rect x="10" y="6" width="1" height="1" fill="#4ecdc4"/>
  <rect x="11" y="5" width="1" height="1" fill="#4ecdc4"/>
  <rect x="12" y="4" width="1" height="1" fill="#4ecdc4"/>
  <rect x="13" y="3" width="1" height="1" fill="#4ecdc4"/>
  <rect x="4" y="10" width="2" height="2" fill="#ff6b6b"/>
  <rect x="6" y="8" width="2" height="2" fill="#ff6b6b"/>
  <rect x="9" y="5" width="2" height="2" fill="#ff6b6b"/>
  <rect x="12" y="2" width="2" height="2" fill="#ff6b6b"/>
</svg>
