<!-- 8-bit Globe icon -->
<svg xmlns="http://www.w3.org/2000/svg" viewBox="0 0 16 16" width="32" height="32" shape-rendering="crispEdges">
  <rect x="5" y="0" width="6" height="1" fill="#111"/>
  <rect x="3" y="1" width="2" height="1" fill="#111"/>
  <rect x="5" y="1" width="6" height="1" fill="#4ecdc4"/>
  <rect x="11" y="1" width="2" height="1" fill="#111"/>
  <rect x="2" y="2" width="1" height="1" fill="#111"/>
  <rect x="3" y="2" width="2" height="1" fill="#4ecdc4"/>
  <rect x="5" y="2" width="1" height="1" fill="#2a9d8f"/>
  <rect x="6" y="2" width="4" height="1" fill="#4ecdc4"/>
  <rect x="10" y="2" width="1" height="1" fill="#2a9d8f"/>
  <rect x="11" y="2" width="2" height="1" fill="#4ecdc4"/>
  <rect x="13" y="2" width="1" height="1" fill="#111"/>
  <rect x="1" y="3" width="1" height="1" fill="#111"/>
  <rect x="2" y="3" width="2" height="1" fill="#4ecdc4"/>
  <rect x="4" y="3" width="3" height="1" fill="#2a9d8f"/>
  <rect x="7" y="3" width="2" height="1" fill="#4ecdc4"/>
  <rect x="9" y="3" width="2" height="1" fill="#2a9d8f"/>
  <rect x="11" y="3" width="3" height="1" fill="#4ecdc4"/>
  <rect x="14" y="3" width="1" height="1" fill="#111"/>
  <rect x="0" y="4" width="1" height="1" fill="#111"/>
  <rect x="1" y="4" width="3" height="1" fill="#4ecdc4"/>
  <rect x="4" y="4" width="4" height="1" fill="#2a9d8f"/>
  <rect x="8" y="4" width="1" height="1" fill="#4ecdc4"/>
  <rect x="9" y="4" width="3" height="1" fill="#2a9d8f"/>
  <rect x="12" y="4" width="3" height="1" fill="#4ecdc4"/>
  <rect x="15" y="4" width="1" height="1" fill="#111"/>
  <rect x="0" y="5" width="1" height="1" fill="#111"/>
  <rect x="1" y="5" width="2" height="1" fill="#4ecdc4"/>
  <rect x="3" y="5" width="5" height="1" fill="#2a9d8f"/>
  <rect x="8" y="5" width="2" height="1" fill="#4ecdc4"/>
  <rect x="10" y="5" width="2" height="1" fill="#2a9d8f"/>
  <rect x="12" y="5" width="3" height="1" fill="#4ecdc4"/>
  <rect x="15" y="5" width="1" height="1" fill="#111"/>
  <rect x="0" y="6" width="1" height="1" fill="#111"/>
  <rect x="1" y="6" width="3" height="1" fill="#4ecdc4"/>
  <rect x="4" y="6" width="3" height="1" fill="#2a9d8f"/>
  <rect x="7" y="6" width="4" height="1" fill="#4ecdc4"/>
  <rect x="11" y="6" width="1" height="1" fill="#2a9d8f"/>
  <rect x="12" y="6" width="3" height="1" fill="#4ecdc4"/>
  <rect x="15" y="6" width="1" height="1" fill="#111"/>
  <rect x="0" y="7" width="1" height="1" fill="#111"/>
  <rect x="1" y="7" width="4" height="1" fill="#4ecdc4"/>
  <rect x="5" y="7" width="2" height="1" fill="#2a9d8f"/>
  <rect x="7" y="7" width="5" height="1" fill="#4ecdc4"/>
  <rect x="12" y="7" width="3" height="1" fill="#4ecdc4"/>
  <rect x="15" y="7" width="1" height="1" fill="#111"/>
  <rect x="0" y="8" width="1" height="1" fill="#111"/>
  <rect x="1" y="8" width="5" height="1" fill="#4ecdc4"/>
  <rect x="6" y="8" width="1" height="1" fill="#2a9d8f"/>
  <rect x="7" y="8" width="8" height="1" fill="#4ecdc4"/>
  <rect x="15" y="8" width="1" height="1" fill="#111"/>
  <rect x="0" y="9" width="1" height="1" fill="#111"/>
  <rect x="1" y="9" width="14" height="1" fill="#4ecdc4"/>
  <rect x="15" y="9" width="1" height="1" fill="#111"/>
  <rect x="0" y="10" width="1" height="1" fill="#111"/>
  <rect x="1" y="10" width="4" height="1" fill="#4ecdc4"/>
  <rect x="5" y="10" width="3" height="1" fill="#2a9d8f"/>
  <rect x="8" y="10" width="7" height="1" fill="#4ecdc4"/>
  <rect x="15" y="10" width="1" height="1" fill="#111"/>
  <rect x="0" y="11" width="1" height="1" fill="#111"/>
  <rect x="1" y="11" width="3" height="1" fill="#4ecdc4"/>
  <rect x="4" y="11" width="4" height="1" fill="#2a9d8f"/>
  <rect x="8" y="11" width="7" height="1" fill="#4ecdc4"/>
  <rect x="15" y="11" width="1" height="1" fill="#111"/>
  <rect x="1" y="12" width="1" height="1" fill="#111"/>
  <rect x="2" y="12" width="3" height="1" fill="#4ecdc4"/>
  <rect x="5" y="12" width="3" height="1" fill="#2a9d8f"/>
  <rect x="8" y="12" width="6" height="1" fill="#4ecdc4"/>
  <rect x="14" y="12" width="1" height="1" fill="#111"/>
  <rect x="2" y="13" width="1" height="1" fill="#111"/>
  <rect x="3" y="13" width="10" height="1" fill="#4ecdc4"/>
  <rect x="13" y="13" width="1" height="1" fill="#111"/>
  <rect x="3" y="14" width="2" height="1" fill="#111"/>
  <rect x="5" y="14" width="6" height="1" fill="#4ecdc4"/>
  <rect x="11" y="14" width="2" height="1" fill="#111"/>
  <rect x="5" y="15" width="6" height="1" fill="#111"/>
</svg>
